<svg xmlns="http://www.w3.org/2000/svg" xmlns:xlink="http://www.w3.org/1999/xlink" width="199.697" height="100" viewBox="0 0 199.697 100"><defs><linearGradient id="a" y1="0.5" x2="1" y2="0.5" gradientUnits="objectBoundingBox"><stop offset="0" stop-color="#f79726"/><stop offset="0.378" stop-color="#fef7ef"/><stop offset="0.508" stop-color="#fff"/><stop offset="0.626" stop-color="#d7eee2"/><stop offset="1" stop-color="#09964b"/></linearGradient><linearGradient id="b" x1="1" x2="0" xlink:href="#a"/><clipPath id="c"><rect width="7.789" height="5.984" fill="none" stroke="#fff" stroke-width="0.3"/></clipPath></defs><g transform="translate(-237.061 -6529.936)"><path d="M5.954-2.423a2.072,2.072,0,0,1,1.188.664,1.916,1.916,0,0,1,.42,1.28A1.8,1.8,0,0,1,6.82,1.068a3.7,3.7,0,0,1-2.2.542H1.02V-6.209H4.4a3.4,3.4,0,0,1,2.026.524A1.73,1.73,0,0,1,7.146-4.2a1.862,1.862,0,0,1-.318,1.1,1.908,1.908,0,0,1-.878.674Zm-4.1-3.112V-2.7h2.49A2.512,2.512,0,0,0,5.81-3.063a1.21,1.21,0,0,0,.514-1.058A1.21,1.21,0,0,0,5.81-5.175a2.512,2.512,0,0,0-1.462-.364ZM4.616.918A2.872,2.872,0,0,0,6.2.56,1.246,1.246,0,0,0,6.738-.556q0-1.462-2.13-1.462H1.856V.918Zm5.424-4.028A1.922,1.922,0,0,1,10.873-4a2.826,2.826,0,0,1,1.368-.3v.77l-.19-.012a1.876,1.876,0,0,0-1.452.57,2.268,2.268,0,0,0-.524,1.6v3h-.8V-4.265h.76Zm3.63-1.146h.8V1.616h-.8Zm.4-1.284a.562.562,0,0,1-.412-.164.548.548,0,0,1-.164-.4.536.536,0,0,1,.164-.4.562.562,0,0,1,.412-.164.572.572,0,0,1,.412.164.518.518,0,0,1,.164.384.562.562,0,0,1-.164.412.562.562,0,0,1-.412.15Zm7.961-1.128V1.618h-.76V.456a2.418,2.418,0,0,1-.944.9,2.768,2.768,0,0,1-1.326.3,2.98,2.98,0,0,1-1.5-.38A2.714,2.714,0,0,1,16.455.222a3.132,3.132,0,0,1-.378-1.542,3.132,3.132,0,0,1,.38-1.552,2.674,2.674,0,0,1,1.054-1.048A3.016,3.016,0,0,1,19-4.3a2.784,2.784,0,0,1,1.288.3,2.444,2.444,0,0,1,.944.864V-6.677ZM19.073.96A2.2,2.2,0,0,0,20.181.68a2.022,2.022,0,0,0,.782-.8,2.456,2.456,0,0,0,.284-1.2,2.456,2.456,0,0,0-.284-1.2,2.022,2.022,0,0,0-.782-.8,2.2,2.2,0,0,0-1.11-.284,2.216,2.216,0,0,0-1.122.284,2.022,2.022,0,0,0-.782.8,2.456,2.456,0,0,0-.284,1.2,2.456,2.456,0,0,0,.284,1.2,2.022,2.022,0,0,0,.782.8,2.216,2.216,0,0,0,1.124.28Zm10.6-5.224V.894a3,3,0,0,1-.732,2.22,3.024,3.024,0,0,1-2.2.72,4.926,4.926,0,0,1-1.546-.24,3.18,3.18,0,0,1-1.188-.664l.4-.6a3.016,3.016,0,0,0,1.034.6,3.856,3.856,0,0,0,1.28.212,2.256,2.256,0,0,0,1.638-.52,2.186,2.186,0,0,0,.524-1.614V.26a2.4,2.4,0,0,1-.966.848,2.988,2.988,0,0,1-1.324.29,3.122,3.122,0,0,1-1.5-.364A2.68,2.68,0,0,1,24.03.018a2.856,2.856,0,0,1-.384-1.474,2.826,2.826,0,0,1,.384-1.474,2.662,2.662,0,0,1,1.054-1,3.152,3.152,0,0,1,1.506-.358,2.978,2.978,0,0,1,1.352.3,2.436,2.436,0,0,1,.972.872V-4.243Zm-3,4.944A2.4,2.4,0,0,0,27.824.406a1.976,1.976,0,0,0,.8-.764,2.186,2.186,0,0,0,.284-1.116,2.156,2.156,0,0,0-.284-1.11,2,2,0,0,0-.8-.76,2.4,2.4,0,0,0-1.156-.274,2.416,2.416,0,0,0-1.146.268,1.948,1.948,0,0,0-.8.76,2.186,2.186,0,0,0-.284,1.116,2.186,2.186,0,0,0,.284,1.116,1.984,1.984,0,0,0,.8.764A2.374,2.374,0,0,0,26.678.68ZM31.9-4.267h.8V1.606h-.8Zm.4-1.284a.562.562,0,0,1-.412-.164.548.548,0,0,1-.164-.4.536.536,0,0,1,.164-.4.562.562,0,0,1,.412-.164.572.572,0,0,1,.412.164.518.518,0,0,1,.164.384.562.562,0,0,1-.164.412.562.562,0,0,1-.41.17Zm5.6,1.24a2.4,2.4,0,0,1,1.758.642,2.508,2.508,0,0,1,.656,1.87V1.6h-.8V-1.721a1.948,1.948,0,0,0-.458-1.4,1.72,1.72,0,0,0-1.31-.48,2,2,0,0,0-1.5.564A2.13,2.13,0,0,0,35.7-1.479V1.6h-.8V-4.265h.76v1.082a2.2,2.2,0,0,1,.9-.832,2.878,2.878,0,0,1,1.334-.3Zm10.027.044V.892a3,3,0,0,1-.732,2.22,3.024,3.024,0,0,1-2.2.72,4.926,4.926,0,0,1-1.546-.24,3.18,3.18,0,0,1-1.184-.668l.4-.6a3.016,3.016,0,0,0,1.034.6,3.856,3.856,0,0,0,1.28.212,2.256,2.256,0,0,0,1.638-.52A2.186,2.186,0,0,0,47.145,1V.254a2.4,2.4,0,0,1-.966.848,2.988,2.988,0,0,1-1.324.29,3.122,3.122,0,0,1-1.5-.364A2.68,2.68,0,0,1,42.291.012a2.856,2.856,0,0,1-.384-1.474,2.826,2.826,0,0,1,.384-1.474,2.662,2.662,0,0,1,1.054-1,3.152,3.152,0,0,1,1.506-.358,2.978,2.978,0,0,1,1.352.3,2.436,2.436,0,0,1,.972.872v-1.14ZM44.923.68A2.4,2.4,0,0,0,46.069.406a1.976,1.976,0,0,0,.8-.764,2.186,2.186,0,0,0,.284-1.116,2.156,2.156,0,0,0-.284-1.11,2,2,0,0,0-.8-.76,2.4,2.4,0,0,0-1.156-.274,2.416,2.416,0,0,0-1.146.268,1.948,1.948,0,0,0-.8.76,2.186,2.186,0,0,0-.284,1.116,2.186,2.186,0,0,0,.3,1.12,1.984,1.984,0,0,0,.8.764,2.374,2.374,0,0,0,1.14.27ZM60.646-4.267h.8V1.606h-.8Zm.4-1.284a.562.562,0,0,1-.412-.164.548.548,0,0,1-.164-.4.536.536,0,0,1,.164-.4.562.562,0,0,1,.412-.164.572.572,0,0,1,.412.164.518.518,0,0,1,.164.384.562.562,0,0,1-.164.412.562.562,0,0,1-.414.158Zm4.176,7.2a4.508,4.508,0,0,1-1.368-.2A2.948,2.948,0,0,1,62.832.93L63.19.3a3,3,0,0,0,.926.474,3.682,3.682,0,0,0,1.162.184,2.218,2.218,0,0,0,1.188-.25A.8.8,0,0,0,66.851,0a.638.638,0,0,0-.212-.508A1.4,1.4,0,0,0,66.1-.784a7.645,7.645,0,0,0-.86-.184A9.859,9.859,0,0,1,64.1-1.243a1.69,1.69,0,0,1-.742-.474,1.32,1.32,0,0,1-.306-.926,1.452,1.452,0,0,1,.614-1.2,2.758,2.758,0,0,1,1.708-.468,4.434,4.434,0,0,1,1.146.15,3.132,3.132,0,0,1,.938.4l-.346.638a2.964,2.964,0,0,0-1.732-.5,2,2,0,0,0-1.146.268.818.818,0,0,0-.384.7.694.694,0,0,0,.218.536,1.34,1.34,0,0,0,.542.3,8.739,8.739,0,0,0,.892.2,10.275,10.275,0,0,1,1.128.268,1.656,1.656,0,0,1,.726.458,1.26,1.26,0,0,1,.3.892,1.42,1.42,0,0,1-.642,1.224,3.052,3.052,0,0,1-1.8.456ZM72.2,1.238a1.5,1.5,0,0,1-.552.306,2.226,2.226,0,0,1-.686.106A1.722,1.722,0,0,1,69.691,1.2,1.706,1.706,0,0,1,69.243-.06V-3.6h-1.05v-.67h1.05V-5.555h.8v1.284h1.786v.67h-1.8V-.094a1.11,1.11,0,0,0,.262.8,1,1,0,0,0,.754.274A1.458,1.458,0,0,0,71.519.9a1.18,1.18,0,0,0,.4-.222Zm3.5-5.558a2.486,2.486,0,0,1,1.764.574,2.222,2.222,0,0,1,.614,1.7V1.6h-.766V.68a1.818,1.818,0,0,1-.788.714,2.754,2.754,0,0,1-1.234.258,2.416,2.416,0,0,1-1.562-.468,1.514,1.514,0,0,1-.582-1.24,1.5,1.5,0,0,1,.542-1.2,2.65,2.65,0,0,1,1.724-.458h1.866v-.358a1.506,1.506,0,0,0-.424-1.156,1.752,1.752,0,0,0-1.24-.4,3.15,3.15,0,0,0-1.072.184,2.7,2.7,0,0,0-.882.508l-.358-.6a3.168,3.168,0,0,1,1.072-.586,4.172,4.172,0,0,1,1.322-.2Zm-.278,5.348A2.09,2.09,0,0,0,76.567.722a1.834,1.834,0,0,0,.714-.888v-.954H75.439q-1.506,0-1.506,1.05a.96.96,0,0,0,.4.8,1.778,1.778,0,0,0,1.094.308Zm7.8-5.348a2.4,2.4,0,0,1,1.764.64,2.508,2.508,0,0,1,.656,1.87v3.4h-.8v-3.31a1.948,1.948,0,0,0-.458-1.4,1.72,1.72,0,0,0-1.31-.48,2,2,0,0,0-1.5.564,2.128,2.128,0,0,0-.552,1.558V1.6h-.8V-4.265h.766v1.082a2.2,2.2,0,0,1,.9-.832,2.878,2.878,0,0,1,1.334-.3Zm7.024,5.988a3.164,3.164,0,0,1-1.558-.38A2.748,2.748,0,0,1,87.61.222a3.07,3.07,0,0,1-.4-1.546,3.04,3.04,0,0,1,.4-1.542,2.76,2.76,0,0,1,1.072-1.06,3.164,3.164,0,0,1,1.558-.38,3.016,3.016,0,0,1,1.356.3,2.252,2.252,0,0,1,.944.864l-.6.4A1.852,1.852,0,0,0,91.2-3.4a2.186,2.186,0,0,0-.966-.216,2.292,2.292,0,0,0-1.146.284,2,2,0,0,0-.8.8,2.456,2.456,0,0,0-.284,1.2,2.456,2.456,0,0,0,.284,1.2,2,2,0,0,0,.8.8A2.292,2.292,0,0,0,90.238.95,2.236,2.236,0,0,0,91.21.738a1.8,1.8,0,0,0,.736-.656l.6.4a2.246,2.246,0,0,1-.948.864,3.024,3.024,0,0,1-1.35.318Zm8.861-2.746h-4.92A2.1,2.1,0,0,0,94.89.4a2.336,2.336,0,0,0,1.6.564,2.534,2.534,0,0,0,1-.2,2.2,2.2,0,0,0,.8-.574L98.739.7a2.516,2.516,0,0,1-.982.714,3.3,3.3,0,0,1-1.288.246,3.26,3.26,0,0,1-1.6-.384A2.784,2.784,0,0,1,93.778.21a3.04,3.04,0,0,1-.4-1.542,3.148,3.148,0,0,1,.374-1.542,2.708,2.708,0,0,1,1.032-1.054,2.868,2.868,0,0,1,1.474-.38,2.838,2.838,0,0,1,1.458.38,2.69,2.69,0,0,1,1.016,1.054,3.178,3.178,0,0,1,.388,1.554Zm-2.832-2.55a2,2,0,0,0-1.424.542,2.13,2.13,0,0,0-.656,1.412h4.164A2.128,2.128,0,0,0,97.7-3.087a2.012,2.012,0,0,0-1.428-.542Zm6.04,5.292a4.508,4.508,0,0,1-1.368-.2,2.948,2.948,0,0,1-1.022-.52l.358-.626a3,3,0,0,0,.926.474,3.682,3.682,0,0,0,1.162.184,2.218,2.218,0,0,0,1.188-.25.8.8,0,0,0,.384-.71.638.638,0,0,0-.212-.508,1.4,1.4,0,0,0-.536-.278,7.645,7.645,0,0,0-.86-.184,9.857,9.857,0,0,1-1.146-.274,1.69,1.69,0,0,1-.742-.474,1.32,1.32,0,0,1-.306-.926,1.452,1.452,0,0,1,.614-1.2,2.758,2.758,0,0,1,1.708-.468,4.436,4.436,0,0,1,1.146.15,3.134,3.134,0,0,1,.938.4l-.346.638a2.964,2.964,0,0,0-1.732-.5,2,2,0,0,0-1.146.268.818.818,0,0,0-.384.7.694.694,0,0,0,.218.536,1.34,1.34,0,0,0,.542.3,8.741,8.741,0,0,0,.892.2,10.277,10.277,0,0,1,1.128.268,1.658,1.658,0,0,1,.726.458,1.26,1.26,0,0,1,.3.892,1.42,1.42,0,0,1-.642,1.224,3.052,3.052,0,0,1-1.8.45Z" transform="translate(282.435 6626.093)"/><path d="M-16931.01-9188.883h-41.977v-1.213h41.977Z" transform="translate(17210.047 15813.1)" fill="url(#a)"/><path d="M-16973-9188.883h41.975v-1.213H-16973Z" transform="translate(17366.037 15813.1)" fill="url(#b)"/><path d="M1.865.273H2.5A11.3,11.3,0,0,0,4.629.139a2.328,2.328,0,0,0,.982-.46,2.706,2.706,0,0,0,.782-1.1,4.18,4.18,0,0,0,.278-1.548,4.146,4.146,0,0,0-.266-1.544,2.716,2.716,0,0,0-.784-1.1,2.346,2.346,0,0,0-1-.468A10.869,10.869,0,0,0,2.5-6.226H1.865Zm-1,.936V-7.144h1.6a11.929,11.929,0,0,1,2.508.18,3.4,3.4,0,0,1,1.276.6,3.5,3.5,0,0,1,1.09,1.414,4.986,4.986,0,0,1,.372,1.986A4.982,4.982,0,0,1,7.343-.985,3.46,3.46,0,0,1,6.251.429,3.4,3.4,0,0,1,5,1.029a9.545,9.545,0,0,1-2.178.18H.859Z" transform="translate(333.977 6626.563)"/><path d="M4.4-11.791V-58.918H19.581a22.33,22.33,0,0,1,11.237,2.832,19.907,19.907,0,0,1,7.785,8,24.138,24.138,0,0,1,2.832,11.571v2.168a24.278,24.278,0,0,1-2.734,11.6A20,20,0,0,1,31-14.723a21.84,21.84,0,0,1-11.087,2.928ZM15.761-50.145v29.616h3.948a8.845,8.845,0,0,0,7.509-3.478,17.055,17.055,0,0,0,2.62-10.341v-2.038a16.913,16.913,0,0,0-2.62-10.293,9,9,0,0,0-7.639-3.464ZM66.8-11.791a12.314,12.314,0,0,1-1.036-3.14,10.143,10.143,0,0,1-8.4,3.786,12.427,12.427,0,0,1-8.419-3,9.531,9.531,0,0,1-3.464-7.527,9.8,9.8,0,0,1,4.2-8.6A21.431,21.431,0,0,1,61.92-33.186h3.366v-1.848q0-4.846-4.174-4.846a3.412,3.412,0,0,0-2.9.948,3.414,3.414,0,0,0-.982,2.888h-10.9a9.779,9.779,0,0,1,4.32-8.243A18.159,18.159,0,0,1,61.67-47.455a15.921,15.921,0,0,1,10.583,3.276,11.367,11.367,0,0,1,3.982,8.965v15.5a15.877,15.877,0,0,0,1.488,7.38v.55Zm-6.83-7.12a6.084,6.084,0,0,0,3.382-.874,5.476,5.476,0,0,0,1.926-1.976v-5.6H62.124q-5.7,0-5.7,5.112a3.122,3.122,0,0,0,1,2.41,3.63,3.63,0,0,0,2.556.926Zm42.359,7.12a12.317,12.317,0,0,1-1.036-3.14,10.143,10.143,0,0,1-8.415,3.786,12.427,12.427,0,0,1-8.425-3,9.531,9.531,0,0,1-3.452-7.523,9.8,9.8,0,0,1,4.2-8.6A21.431,21.431,0,0,1,97.44-33.182h3.366V-35.03q0-4.846-4.174-4.846a3.412,3.412,0,0,0-2.9.948,3.414,3.414,0,0,0-.982,2.888H81.843a9.779,9.779,0,0,1,4.32-8.243,18.159,18.159,0,0,1,11.023-3.176,15.921,15.921,0,0,1,10.583,3.276,11.367,11.367,0,0,1,3.982,8.965v15.5a15.877,15.877,0,0,0,1.488,7.381v.55Zm-6.83-7.12a6.085,6.085,0,0,0,3.382-.874,5.476,5.476,0,0,0,1.926-1.976v-5.6H97.64q-5.7,0-5.7,5.112a3.122,3.122,0,0,0,1,2.41,3.63,3.63,0,0,0,2.554.926Zm36.707-5.926-3.074,3.074v9.969H118.208V-61.54h10.909v26.4l1.1-1.456,8.223-10.229h13.077l-12.267,14.4L152.326-11.8h-12.5Zm34,13.047H155.27V-46.813h10.941Zm26.776,0a12.314,12.314,0,0,1-1.036-3.14,10.143,10.143,0,0,1-8.415,3.786,12.427,12.427,0,0,1-8.415-3,9.531,9.531,0,0,1-3.46-7.512,9.8,9.8,0,0,1,4.2-8.6A21.431,21.431,0,0,1,188.1-33.172h3.366v-1.852q0-4.846-4.174-4.846a3.412,3.412,0,0,0-2.9.948,3.412,3.412,0,0,0-.976,2.864H172.5a9.779,9.779,0,0,1,4.32-8.243,18.159,18.159,0,0,1,11.021-3.168,15.921,15.921,0,0,1,10.583,3.276,11.367,11.367,0,0,1,3.986,8.975v15.5a15.877,15.877,0,0,0,1.476,7.375v.55Zm-6.83-7.12a6.085,6.085,0,0,0,3.382-.874,5.476,5.476,0,0,0,1.926-1.976v-5.6H188.3q-5.7,0-5.7,5.112a3.124,3.124,0,0,0,1.012,2.412,3.63,3.63,0,0,0,2.55.926Z" transform="translate(232.867 6617.818)"/><g transform="translate(374.379 6529.936)"><path d="M10.552,35.508s-.628-.34-1-.6C9.54,34.908,0,37.389,0,37.389L3.289,29.15a15.275,15.275,0,0,1-1.4-2.316,18.727,18.727,0,1,1,8.681,8.681Z" transform="translate(-0.003 0.064)" fill="#00a9ee"/><path d="M1.166-6.124q.066.2.152.446a4.942,4.942,0,0,0,.2.492,4.4,4.4,0,0,0,.27.476,2.138,2.138,0,0,0,.344.4,1.612,1.612,0,0,0,.428.284,1.248,1.248,0,0,0,.522.106A1.23,1.23,0,0,0,3.56-4a.854.854,0,0,0,.31-.23.846.846,0,0,0,.18-.31,1.4,1.4,0,0,0,.054-.4.836.836,0,0,0-.328-.7,1.5,1.5,0,0,0-.936-.252H2.692l-.148.014v-.662h.1a1.768,1.768,0,0,0,.54-.076,1.214,1.214,0,0,0,.4-.2.872.872,0,0,0,.244-.3.84.84,0,0,0,.082-.366.742.742,0,0,0-.06-.308.656.656,0,0,0-.164-.226.688.688,0,0,0-.248-.138A1.026,1.026,0,0,0,3.12-8.2a1.638,1.638,0,0,0-.226.014,1.926,1.926,0,0,0-.23.048,2.671,2.671,0,0,0-.258.086q-.138.052-.312.132l-.248-.6a3.712,3.712,0,0,1,.656-.25,2.434,2.434,0,0,1,.638-.086,1.638,1.638,0,0,1,.58.1,1.41,1.41,0,0,1,.46.276,1.25,1.25,0,0,1,.3.42,1.276,1.276,0,0,1,.108.526,1.432,1.432,0,0,1-.744,1.252v.018a1.672,1.672,0,0,1,.492.3q.126.022.266.034t.258.014a2,2,0,0,0,.258-.024A1.432,1.432,0,0,0,5.4-6a1.5,1.5,0,0,0,.284-.14,1.716,1.716,0,0,0,.294-.226v-2.4H7.6v.638H6.7v5.24H5.982v-2.7H5.964a1.474,1.474,0,0,1-.466.218,1.912,1.912,0,0,1-.448.052H4.9L4.734-5.33v.018a1.214,1.214,0,0,1,.068.438,1.774,1.774,0,0,1-.118.656,1.5,1.5,0,0,1-.338.52,1.526,1.526,0,0,1-.53.34,1.9,1.9,0,0,1-.7.122,1.84,1.84,0,0,1-.746-.146,2.368,2.368,0,0,1-.6-.376,2.744,2.744,0,0,1-.466-.52,4.576,4.576,0,0,1-.344-.58,4.892,4.892,0,0,1-.234-.568A4.23,4.23,0,0,1,.6-5.864Z" transform="translate(14.215 25.189)" fill="#fff" stroke="#fff" stroke-linecap="round" stroke-width="0.3"/><path d="M5.948-13.583l.466-.328.236.556a1.966,1.966,0,0,1-.416.2,1.2,1.2,0,0,1-.384.072.4.4,0,0,1-.328-.138.6.6,0,0,1-.11-.38v-1.258a1.966,1.966,0,0,1-.3.074,2.026,2.026,0,0,1-.328.026,1.108,1.108,0,0,1-.464-.094,1.07,1.07,0,0,1-.356-.26h0a1.452,1.452,0,0,1-.466.774,1.22,1.22,0,0,1-.788.26,1.272,1.272,0,0,1-.446-.076,1.31,1.31,0,0,1-.382-.222,1.822,1.822,0,0,1-.328-.358,3.675,3.675,0,0,1-.286-.492,2.069,2.069,0,0,1-.224-.012l-.2-.024L.9-15.755a1.474,1.474,0,0,0,.2.02h.226a.87.87,0,0,0,.336-.064.752.752,0,0,0,.258-.176.788.788,0,0,0,.164-.26.872.872,0,0,0,.058-.328.982.982,0,0,0-.058-.34.738.738,0,0,0-.164-.262.708.708,0,0,0-.254-.164.908.908,0,0,0-.328-.058H1.16A1.035,1.035,0,0,0,1-17.365l-.084-.482a1.146,1.146,0,0,1,.2-.036h.2a1.448,1.448,0,0,1,.61.118,1.2,1.2,0,0,1,.42.312,1.256,1.256,0,0,1,.24.438,1.638,1.638,0,0,1,.076.5,1.348,1.348,0,0,1-.064.416,1.256,1.256,0,0,1-.176.352,1.234,1.234,0,0,1-.272.274,1.216,1.216,0,0,1-.348.178,1.742,1.742,0,0,0,.38.528.712.712,0,0,0,.492.182A.744.744,0,0,0,3-14.659a.708.708,0,0,0,.27-.242,1.322,1.322,0,0,0,.184-.438A2.836,2.836,0,0,0,3.518-16v-.71h.536v.556a1.108,1.108,0,0,0,.068.416.8.8,0,0,0,.174.27.612.612,0,0,0,.232.148.764.764,0,0,0,.248.044,1.124,1.124,0,0,0,.346-.05,1.1,1.1,0,0,0,.3-.154v-2.338h.53Zm-2.106-6.1a2.8,2.8,0,0,1,.524.044,1.462,1.462,0,0,1,.4.132,1.146,1.146,0,0,1,.3.222,1.522,1.522,0,0,1,.228.312L5.95-17.8l-.438.2-.492-.968a1.03,1.03,0,0,0-.2-.286.938.938,0,0,0-.262-.178,1.2,1.2,0,0,0-.328-.092,2.62,2.62,0,0,0-.38-.026H3.092v-.524Z" transform="translate(26.47 35.784)" fill="#fff" stroke="#fff" stroke-width="0.5"/><path d="M77.913,241.762c0-.014.154-.242.154-.242l-.878-.374s-.126.284-.164.268a3.768,3.768,0,0,0-1.42.028c0-.328.014-.612.028-.878l3.066.014v-.836l-3-.014a8.206,8.206,0,0,1,.164-.828l-.8-.164a8.173,8.173,0,0,0-.2,1.01H72.639v.836H74.8c-.028.328-.028.724-.028,1.128a3.9,3.9,0,0,0-.85.474,2.5,2.5,0,0,0-1.058,1.658,1.8,1.8,0,0,0,1.8,2,2.02,2.02,0,0,0,1.2-.39,6.481,6.481,0,0,0,1.768-2.826,1.4,1.4,0,0,1,.182.222c.544.878.124,1.4-.628,2.144l-.14.14.584.584.126-.126a2.354,2.354,0,0,0,.752-3.176,1.7,1.7,0,0,0-.6-.656Zm-4.01,2.87a.926.926,0,0,1-.222-.724,1.724,1.724,0,0,1,.724-1.086,3.617,3.617,0,0,1,.39-.238,10.366,10.366,0,0,0,.432,2.256,1.046,1.046,0,0,1-1.322-.2Zm2-.446a10.256,10.256,0,0,1-.294-1.894,3.721,3.721,0,0,1,.766-.1,2.62,2.62,0,0,1,.474.04h.028a8.239,8.239,0,0,1-.972,1.948Zm0,0" transform="translate(-68.791 -222.963)" fill="#fff"/><path d="M6.167-7.316H5.3L4.585-9.2H1.755L1.087-7.324H.215L2.785-14H3.6ZM4.335-9.9l-1.05-2.85a2.728,2.728,0,0,1-.1-.452H3.163a2.5,2.5,0,0,1-.108.448L2.015-9.9Z" transform="translate(15.236 18.444)" fill="#fff" stroke="#fff" stroke-width="0.3"/><g transform="translate(14.553 27.784)"><g clip-path="url(#c)"><path d="M6.182,4.538V.76c0-.188,0-.188-.184-.188H.2c-.2,0-.2,0-.2-.2C0,0,0,0,.374,0h7.2c.2,0,.2,0,.2.2,0,.362,0,.362-.358.362H7c-.2,0-.2,0-.2.19v5.06c0,.068.034.164-.086.164s-.172,0-.214-.13A3.06,3.06,0,0,0,5.246,4.18c-.144-.1-.14-.092-.248.042a3.518,3.518,0,0,1-.482.538,1.6,1.6,0,0,1-1.474.254,2.62,2.62,0,0,1-1.366-.946A6.8,6.8,0,0,1,.5,1.754C.448,1.574.4,1.4.35,1.2A.151.151,0,0,1,.542,1c.036,0,.076.06.09.1.15.428.266.87.45,1.28A3.126,3.126,0,0,0,2.514,3.97a1.868,1.868,0,0,0,1.648.046,1.366,1.366,0,0,0,.764-1.452,1.31,1.31,0,0,0-.412-.8.892.892,0,0,0-.6-.236c-.164,0-.184.038-.152.2a2.154,2.154,0,0,1,.076.5.728.728,0,0,1-.85.728.776.776,0,0,1-.728-.776A1.114,1.114,0,0,1,3.428.982,1.778,1.778,0,0,1,5.24,2.424a2.23,2.23,0,0,1,.04.852.38.38,0,0,0,.1.338c.262.3.51.616.764.924H6.18" fill="#fff" stroke="#fff" stroke-width="0.3"/></g></g></g></g></svg>