<?xml version="1.0" standalone="no"?>
<!DOCTYPE svg PUBLIC "-//W3C//DTD SVG 20010904//EN"
 "http://www.w3.org/TR/2001/REC-SVG-20010904/DTD/svg10.dtd">
<svg version="1.0" xmlns="http://www.w3.org/2000/svg"
 width="70.000000pt" height="70.000000pt" viewBox="0 0 70.000000 70.000000"
 preserveAspectRatio="xMidYMid meet">
<metadata>
Created by potrace 1.14, written by Peter Selinger 2001-2017
</metadata>
<g transform="translate(0.000000,70.000000) scale(0.100000,-0.100000)"
fill="#000000" stroke="none">
<path d="M310 639 c-72 -15 -122 -79 -124 -161 -2 -44 3 -58 29 -92 16 -22 45
-49 63 -59 l33 -19 -20 33 c-24 41 -23 71 4 105 17 21 30 26 79 29 32 2 60 6
63 8 10 11 12 52 2 58 -6 3 1 9 16 13 21 5 26 12 22 26 -3 13 0 20 10 20 9 0
13 8 11 22 -3 22 -8 23 -79 23 -42 0 -91 -3 -109 -6z"/>
<path d="M394 364 c25 -24 31 -64 15 -93 -19 -34 -54 -51 -105 -51 -49 0 -71
-19 -55 -48 9 -17 7 -21 -15 -26 -20 -5 -25 -12 -21 -26 3 -13 0 -20 -10 -20
-9 0 -13 -8 -11 -22 3 -22 8 -23 88 -24 106 0 143 11 180 53 72 81 59 190 -30
251 -38 25 -59 29 -36 6z"/>
</g>
</svg>
