<?xml version="1.0" standalone="no"?>
<!DOCTYPE svg PUBLIC "-//W3C//DTD SVG 1.1//EN" "http://www.w3.org/Graphics/SVG/1.1/DTD/svg11.dtd" >
<svg xmlns="http://www.w3.org/2000/svg">
<metadata>Generated by IcoMoon</metadata>
<defs>
<font id="splash" horiz-adv-x="1024">
<font-face units-per-em="1024" ascent="960" descent="-64" />
<missing-glyph horiz-adv-x="1024" />
<glyph unicode="&#x20;" horiz-adv-x="512" d="" />
<glyph unicode="&#xe900;" glyph-name="down-arrow" horiz-adv-x="1766" d="M882.996-64c-38.923 0.035-74.148 15.836-99.641 41.36l-783.356 783.356 199.442 199.442 683.554-683.711 683.711 683.711 199.442-199.442-783.354-783.354c-25.523-25.554-60.799-41.361-99.767-41.361-0.011 0-0.023 0-0.034 0h0.002z" />
<glyph unicode="&#xe901;" glyph-name="eye-off" d="M432.128 716.203c27.776 6.485 55.296 9.429 79.36 9.131 75.008 0 141.184-23.851 198.741-59.435 47.744-29.525 89.131-66.859 123.477-104.448 27.477-30.080 50.133-59.947 67.627-85.376 13.952-20.267 24.32-37.291 31.275-49.28-23.296-40.661-49.493-77.696-75.861-108.459-15.317-17.877-13.269-44.843 4.608-60.16s44.843-13.269 60.16 4.608c34.901 40.704 68.736 90.112 97.408 143.787 6.315 11.904 6.955 26.368 0.555 39.211 0 0-16.896 33.664-47.787 78.635-19.243 27.989-44.288 61.099-74.965 94.635-38.144 41.771-85.504 84.779-141.611 119.467-68.053 42.027-149.589 72.149-242.603 72.149-31.317 0.384-65.707-3.371-99.84-11.349-22.955-5.376-37.205-28.331-31.829-51.285s28.331-37.205 51.285-31.829zM427.819 450.475l107.989-107.989c-7.765-2.603-15.872-4.011-24.021-4.309-21.888-0.768-43.947 6.784-61.184 22.869s-26.325 37.547-27.093 59.435c-0.341 10.155 1.067 20.309 4.309 30.037zM255.275 623.062l108.928-108.928c-18.517-29.483-27.136-63.317-25.941-96.683 1.536-43.605 19.755-86.741 54.229-118.827s78.763-47.232 122.368-45.696c29.525 1.024 58.837 9.728 84.651 25.941l99.072-99.072c-58.795-34.091-123.52-51.029-187.051-51.797-73.984 0-140.16 23.851-197.717 59.435-47.744 29.525-89.131 66.859-123.477 104.448-27.477 30.080-50.133 59.947-67.627 85.376-13.909 20.267-24.32 37.248-31.232 49.237 44.8 77.739 101.376 144.171 163.883 196.565zM12.501 865.835l182.229-182.229c-73.856-63.104-139.477-143.275-189.653-236.757-6.315-11.904-6.997-26.411-0.555-39.253 0 0 16.896-33.664 47.787-78.635 19.243-27.989 44.288-61.099 74.965-94.635 38.144-41.771 85.504-84.779 141.611-119.467 68.053-42.069 149.589-72.192 243.627-72.192 85.035 1.024 171.477 25.643 248.107 75.051l190.549-190.549c16.683-16.683 43.691-16.683 60.331 0s16.683 43.691 0 60.331l-378.709 378.709c-0.085 0.085-0.213 0.213-0.299 0.299l-179.584 179.627c-0.341 0.299-0.683 0.683-1.024 1.024l-379.051 379.008c-16.683 16.683-43.691 16.683-60.331 0s-16.683-43.691 0-60.331z" />
<glyph unicode="&#xe902;" glyph-name="trip" horiz-adv-x="1207" d="M1193.789 260.346l-309.609-309.609c-8.502-9.106-20.576-14.781-33.977-14.781-25.649 0-46.441 20.792-46.441 46.441 0 13.401 5.676 25.475 14.754 33.952l0.027 0.025 230.287 230.349h-816.686c-25.649 0-46.441 20.792-46.441 46.441s20.792 46.441 46.441 46.441v0h928.826c25.631-0.023 46.4-20.807 46.4-46.441 0-12.814-5.19-24.416-13.582-32.819v0zM1021.647 602.773c0 25.649-20.792 46.441-46.441 46.441v0h-816.686l230.287 230.349c9.106 8.502 14.781 20.576 14.781 33.977 0 25.649-20.792 46.441-46.441 46.441-13.401 0-25.475-5.676-33.952-14.754l-0.025-0.027-309.609-309.609c-8.392-8.402-13.582-20.004-13.582-32.819 0-25.634 20.769-46.418 46.398-46.441h928.828c25.649 0 46.441 20.792 46.441 46.441v0z" />
<glyph unicode="&#xe903;" glyph-name="location-pin" d="M512 864c-206.089-0.243-373.091-167.245-373.333-373.311v-0.023c0-218.368 200.533-350.72 332.8-438.315l22.571-14.976c4.988-3.366 11.134-5.374 17.749-5.374s12.762 2.007 17.863 5.446l-0.114-0.072 22.571 14.976c132.608 87.595 332.8 219.947 332.8 438.315-0.242 205.939-167.002 372.849-372.861 373.333h-0.046zM517.077 105.771l-5.077-3.371-5.077 3.371c-128.384 84.779-304.256 200.96-304.256 384.896 0 170.84 138.493 309.333 309.333 309.333s309.333-138.493 309.333-309.333v0c0-183.936-175.872-300.117-304.256-384.896zM512 629.333c-76.583 0-138.667-62.083-138.667-138.667s62.083-138.667 138.667-138.667c76.583 0 138.667 62.083 138.667 138.667v0c-0.097 76.544-62.122 138.57-138.657 138.667h-0.009zM512 416c-41.237 0-74.667 33.429-74.667 74.667s33.429 74.667 74.667 74.667c41.237 0 74.667-33.429 74.667-74.667v0c-0.049-41.218-33.449-74.618-74.662-74.667h-0.005z" />
<glyph unicode="&#xe904;" glyph-name="book" horiz-adv-x="1088" d="M856.549 946.526h-624.802c-120.549 0-218.274-97.724-218.274-218.274s97.724-218.274 218.274-218.274v0h158.989v-176.317l-7.869 6.548c-17.206 14.021-39.401 22.515-63.579 22.515-27.282 0-52.038-10.814-70.216-28.39l0.028 0.027c-16.229-15.859-26.293-37.968-26.293-62.427 0-27.142 12.393-51.39 31.829-67.393l0.15-0.12 135.949-113.987v-109.864c0 0 0 0 0 0 0-17.137 13.861-31.036 30.984-31.097h373.227c17.175 0 31.097 13.923 31.097 31.097v0 349.4c-0.069 47.43-35.47 86.571-81.289 92.515l-0.469 0.050-167.074 20.803v66.641h279.336c120.549 0 218.274 97.724 218.274 218.274s-97.724 218.274-218.274 218.274v0zM452.716 11.668v62.168h311.027v-62.195zM736.498 360.825c15.424-2.006 27.217-15.049 27.244-30.852v-194.024h-330.698l-138.294 116.143c-5.939 4.649-9.72 11.818-9.72 19.87 0 7.281 3.092 13.84 8.034 18.435l0.016 0.014c6.864 6.349 16.080 10.243 26.205 10.243 8.935 0 17.162-3.033 23.708-8.125l-0.087 0.065 58.826-49.395c5.381-4.565 12.404-7.34 20.076-7.34 17.189 0 31.124 13.935 31.124 31.124 0 0.013 0 0.026 0 0.040v-0.002 397.581c0 17.175 13.923 31.097 31.097 31.097s31.097-13.923 31.097-31.097v0-248.751c0.001-15.815 11.808-28.872 27.088-30.838l0.155-0.016zM856.522 572.227h-279.336v92.376c0.009 0.472 0.013 1.028 0.013 1.585 0 51.524-41.768 93.292-93.292 93.292s-93.292-41.768-93.292-93.292c0-0.557 0.005-1.114 0.015-1.669l-0.001 0.083v-92.376h-158.882c-86.193 0-156.066 69.873-156.066 156.066s69.873 156.066 156.066 156.066v0h624.802c86.193 0 156.066-69.873 156.066-156.066s-69.873-156.066-156.066-156.066v0zM832.889 813.029l-102.4-102.4-40.205 40.205c-5.624 5.605-13.383 9.070-21.951 9.070-17.175 0-31.097-13.923-31.097-31.097 0-8.568 3.465-16.327 9.071-21.952l62.194-62.194c5.627-5.627 13.402-9.108 21.989-9.108s16.362 3.481 21.989 9.108l124.362 124.362c5.605 5.624 9.070 13.383 9.070 21.951 0 17.175-13.923 31.097-31.097 31.097-8.568 0-16.327-3.465-21.952-9.071l0.001 0.001z" />
<glyph unicode="&#xe905;" glyph-name="enjoy" d="M512 960c0.008 0 0.018 0 0.027 0 5.521 0 10.781-1.119 15.566-3.143l-0.262 0.099 391.992-162.766c14.597-6.183 24.651-20.387 24.654-36.94v0-197.858c0.002-0.535 0.002-1.167 0.002-1.8 0-278.335-170.327-516.888-412.436-617.113l-4.43-1.625c-4.47-1.875-9.664-2.964-15.113-2.964s-10.643 1.089-15.378 3.062l0.265-0.098c-246.568 101.837-416.92 340.404-416.92 618.759 0 0.625 0.001 1.25 0.003 1.875v-0.097 197.858c0.003 16.553 10.057 30.758 24.392 36.842l0.262 0.099 391.992 162.766c4.522 1.925 9.782 3.044 15.303 3.044 0.029 0 0.057 0 0.086 0h-0.004zM864.007 730.53l-352.007 146.158-352.007-146.158v-171.247c-0.001-0.446-0.002-0.974-0.002-1.502 0-239.33 143.032-445.253 348.277-536.952l3.731-1.489c208.977 93.188 352.009 299.111 352.009 538.441 0 0.528-0.001 1.056-0.002 1.584v-0.082zM467.802 327.992c-0.019 0-0.041 0-0.064 0-11.029 0-21.013 4.478-28.232 11.715l-111.801 111.801c-7.235 7.24-11.709 17.239-11.709 28.283s4.475 21.043 11.71 28.283v0c7.24 7.235 17.239 11.709 28.283 11.709s21.043-4.475 28.283-11.71l83.503-83.503 171.926 171.926c7.24 7.235 17.239 11.709 28.283 11.709s21.043-4.475 28.283-11.71v0c7.235-7.24 11.709-17.239 11.709-28.283s-4.475-21.043-11.71-28.283l-200.222-200.222c-7.22-7.238-17.203-11.715-28.233-11.715-0.003 0-0.007 0-0.010 0h0.001z" />
<glyph unicode="&#xe906;" glyph-name="facebook" horiz-adv-x="456" d="M437.788 448.97h-135.258v-512.762h-205.036v512.762h-97.494v180.16h97.494v116.827c-0.539 5.455-0.846 11.791-0.846 18.2 0 108.34 87.827 196.166 196.166 196.166 3.954 0 7.881-0.117 11.777-0.348l-0.537 0.025 151.819-0.624v-175.171h-110.175c-18.085 0-43.515-9.354-43.515-49.128v-106.086h153.205z" />
<glyph unicode="&#xe907;" glyph-name="insta" d="M512.183 710.484c-0.022 0-0.047 0-0.073 0-144.986 0-262.521-117.535-262.521-262.521s117.535-262.521 262.521-262.521c144.986 0 262.521 117.535 262.521 262.521v0c0 0.108 0 0.237 0 0.365 0 144.785-117.371 262.156-262.156 262.156-0.103 0-0.206 0-0.308 0h0.016zM512.183 277.285c-94.232 0.042-170.606 76.441-170.606 170.679 0 94.263 76.416 170.679 170.679 170.679s170.679-76.416 170.679-170.679v0c-0.166-94.222-76.524-170.554-170.74-170.679h-0.012zM846.745 721.225c0-33.815-27.413-61.228-61.228-61.228s-61.228 27.413-61.228 61.228c0 33.815 27.413 61.228 61.228 61.228v0c0.043 0 0.095 0 0.146 0 33.735 0 61.082-27.347 61.082-61.082 0-0.051 0-0.103 0-0.154v0.008zM1020.639 659.047c0.044 1.92 0.069 4.181 0.069 6.449 0 80.669-31.517 153.977-82.91 208.282l0.132-0.141c-54.445 51.26-127.997 82.759-208.905 82.759-1.948 0-3.891-0.018-5.83-0.055l0.291 0.004c-84.682 4.822-338.070 4.822-422.605 0-1.81 0.039-3.943 0.061-6.081 0.061-80.746 0-154.155-31.418-208.667-82.697l0.157 0.146c-51.26-54.3-82.768-127.725-82.768-208.509 0-2.113 0.022-4.22 0.064-6.323l-0.005 0.314c-4.822-84.243-4.822-337.924 0-422.532-0.044-1.92-0.069-4.181-0.069-6.449 0-80.669 31.517-153.977 82.91-208.282l-0.132 0.141c54.507-51.305 128.135-82.831 209.126-82.831 1.921 0 3.838 0.018 5.751 0.053l-0.287-0.004c84.536-4.822 337.924-4.822 422.459 0 1.92-0.044 4.181-0.069 6.449-0.069 80.669 0 153.977 31.517 208.282 82.91l-0.141-0.132c51.261 54.445 82.762 127.998 82.762 208.908 0 1.998-0.019 3.992-0.057 5.981l0.005-0.298c4.749 84.682 4.749 337.851 0 422.386zM911.407 146.061c-18.013-44.535-52.718-79.145-96.16-96.617l-1.162-0.413c-68.185-14.642-146.52-23.027-226.814-23.027-26.395 0-52.578 0.906-78.52 2.689l3.504-0.193c-22.273-1.555-48.268-2.441-74.471-2.441-80.506 0-159.059 8.365-234.836 24.272l7.404-1.301c-44.653 17.949-79.373 52.668-96.909 96.161l-0.413 1.161c-14.635 68.169-23.016 146.486-23.016 226.76 0 26.337 0.902 52.462 2.677 78.348l-0.192-3.498c-1.552 22.256-2.437 48.233-2.437 74.416 0 80.5 8.363 159.047 24.269 234.818l-1.3-7.404c17.933 44.683 52.656 79.43 96.162 96.981l1.16 0.414c67.783 14.467 145.659 22.752 225.469 22.752 26.868 0 53.517-0.939 79.916-2.786l-3.556 0.199c22.256 1.552 48.233 2.437 74.416 2.437 80.5 0 159.047-8.363 234.818-24.269l-7.404 1.3c44.653-17.949 79.373-52.668 96.909-96.161l0.413-1.161c14.642-68.185 23.027-146.52 23.027-226.814 0-26.395-0.906-52.578-2.689-78.52l0.193 3.504c1.595-22.466 2.504-48.682 2.504-75.109 0-80.155-8.361-158.358-24.259-233.783l1.297 7.355z" />
<glyph unicode="&#xe908;" glyph-name="location-outline" horiz-adv-x="849" d="M424.358 960c234.256-0.274 424.084-190.102 424.358-424.332v-0.026c-2.020-85.983-26.009-165.951-66.539-235.043l1.244 2.294c-40.59-71.388-87.039-132.994-140.33-187.924l0.223 0.231c-60.508-63.769-126.689-121.003-198.108-171.3l-4.162-2.78c-4.697-3.172-10.485-5.064-16.715-5.064s-12.019 1.892-16.822 5.132l0.107-0.068c-75.581 53.077-141.762 110.311-201.726 173.502l-0.544 0.578c-53.043 54.685-99.472 116.27-137.689 183.153l-2.358 4.48c-39.296 66.815-63.286 146.805-65.284 232.236l-0.011 0.574c0.274 234.256 190.102 424.084 424.332 424.358h0.026zM424.358 2.982c73.487 53.429 364.183 280.817 364.183 532.661 0 201.116-163.037 364.152-364.152 364.152s-364.152-163.037-364.152-364.152v0c0-252.205 290.635-479.172 364.122-532.661zM424.418 719.059c105.357 0 190.765-85.408 190.765-190.765s-85.408-190.765-190.765-190.765c-105.357 0-190.765 85.408-190.765 190.765v0c0.103 105.315 85.45 190.662 190.755 190.765h0.010zM424.418 397.824c72.090 0 130.53 58.44 130.53 130.53s-58.44 130.53-130.53 130.53c-72.090 0-130.53-58.44-130.53-130.53 0-0.021 0-0.042 0-0.063v0.003c0.103-72.036 58.489-130.401 130.523-130.47h0.007z" />
<glyph unicode="&#xe909;" glyph-name="mail-outline" horiz-adv-x="1276" d="M1113.997 952.789h-951.599c-85.674-0.082-155.105-69.513-155.186-155.179v-699.501c0.246-85.55 69.614-154.816 155.179-154.898h951.895c85.55 0.246 154.816 69.614 154.898 155.179v699.501c-0.246 85.55-69.614 154.816-155.179 154.898h-0.008zM162.398 868.633h951.887c39.213-0.041 70.99-31.818 71.031-71.027v-32.31l-547.119-351.405-546.83 351.405v32.306c0.041 39.213 31.818 70.99 71.027 71.031h0.004zM1114.285 27.295h-951.887c-39.213 0.041-70.99 31.818-71.031 71.027v567.098l524.115-336.91c6.429-4.194 14.299-6.688 22.752-6.688s16.322 2.494 22.914 6.787l-0.162-0.099 524.115 336.91v-567.022c-0.041-39.213-31.818-70.99-71.027-71.031h-0.004z" />
<glyph unicode="&#xe90a;" glyph-name="phone-call" horiz-adv-x="1023" d="M744.576-63.872c-56.381 0.472-109.898 12.193-158.591 33.022l2.687-1.022c-121.7 49.644-225.826 118.447-313.853 203.764l0.253-0.244c-79.815 75.624-147.372 163.118-200.084 259.866l-2.732 5.478c-28.196 49.572-50.658 107.001-64.353 167.752l-0.799 4.216c-4.424 17.226-6.963 37.001-6.963 57.37 0 23.517 3.385 46.243 9.695 67.718l-0.427-1.696c7.334 22.513 19.193 41.804 34.592 57.634l-0.032-0.034q38.4 39.296 76.8 77.952c18.393 19.591 44.169 32.064 72.864 32.956l0.16 0.004c0.564 0.012 1.229 0.018 1.895 0.018 27.65 0 52.618-11.483 70.396-29.94l0.029-0.031q62.464-61.568 124.096-124.096c19.435-18.25 31.541-44.109 31.541-72.795 0-1.138-0.019-2.272-0.057-3.401l0.004 0.164c-1.789-28.14-14.365-53.036-33.595-70.849l-0.069-0.063q-30.976-31.36-62.592-62.080c-2.572-1.817-4.231-4.778-4.231-8.127 0-2.134 0.674-4.11 1.82-5.728l-0.021 0.031c26.532-49.527 57.931-92.131 94.515-129.655l-0.115 0.119c39.781-43.605 84.494-81.646 133.544-113.584l2.648-1.616c11.264-7.168 23.616-12.8 35.264-19.2 4.416-2.56 6.976-1.28 10.176 1.984q31.616 32 63.552 63.616c16.972 18.234 40.273 30.38 66.387 32.926l0.429 0.034c2.326 0.207 5.032 0.325 7.765 0.325 26.2 0 49.869-10.835 66.772-28.269l0.023-0.024q64.64-64 128-128.512c18.258-17.991 29.568-42.989 29.568-70.628 0-27.828-11.466-52.979-29.932-70.984l-0.021-0.020c-21.44-22.912-44.8-44.096-65.856-67.2-18.164-20.732-40.987-36.931-66.865-47.023l-1.167-0.401c-15.422-6.16-33.296-9.732-52.004-9.732-0.392 0-0.784 0.002-1.176 0.005h0.060zM735.232-6.272c1.542-0.079 3.349-0.125 5.166-0.125 33.378 0 63.187 15.282 82.812 39.232l0.15 0.189c10.368 12.096 22.144 23.040 33.28 34.432s24.192 23.488 35.2 36.16c7.34 7.157 11.893 17.143 11.893 28.192s-4.553 21.035-11.885 28.184l-0.008 0.008c-2.368 2.816-4.928 5.568-7.488 8.192l-76.288 76.288c-14.144 14.144-28.16 28.352-42.432 42.368-7.096 8.797-17.875 14.376-29.957 14.376-11.584 0-21.97-5.129-29.011-13.241l-0.040-0.047c-2.304-2.112-4.48-4.416-6.4-6.4-24.512-24.32-48.768-48.896-73.6-72.896-7.467-7.857-17.995-12.745-29.664-12.745-7.091 0-13.76 1.805-19.573 4.979l0.214-0.107c-22.67 10.792-41.333 21.153-59.317 32.491l2.357-1.387c-63.757 41.618-118.533 90.005-165.51 145.232l-0.89 1.072c-35.503 38.633-65.498 83.104-88.251 131.645l-1.349 3.203c-3.716 6.54-5.907 14.367-5.907 22.706 0 15.221 7.299 28.738 18.588 37.24l0.119 0.086q36.16 34.624 71.424 70.4c9.438 7.339 15.452 18.695 15.452 31.456s-6.014 24.117-15.362 31.389l-0.089 0.067q-59.584 60.224-119.616 120c-7.811 10.356-20.092 16.981-33.92 16.981s-26.109-6.625-33.842-16.874l-0.078-0.107q-36.224-35.84-72.064-72c-13.623-13.203-23.415-30.286-27.594-49.464l-0.118-0.648c-2.018-10.603-3.172-22.799-3.172-35.265 0-15.197 1.715-29.993 4.963-44.206l-0.255 1.327c13.302-61.032 34.355-115.054 62.489-164.523l-1.497 2.859c53.216-97.909 118.246-181.651 194.671-253.397l0.529-0.491c79.27-75.718 172.445-137.707 275.181-181.642l6.035-2.294c39.436-18.26 85.33-30.092 133.653-32.85l1.003-0.046zM572.544 960c13.184-3.008 32-6.4 50.304-11.648 202.296-56.21 355.789-219.243 397.345-422.997l0.607-3.563c1.107-4.826 1.97-10.602 2.408-16.497l0.024-0.399c0.072-0.745 0.113-1.612 0.113-2.487 0-14.55-11.318-26.457-25.631-27.396l-0.082-0.004c-1.203-0.183-2.59-0.287-4.003-0.287-13.315 0-24.462 9.283-27.321 21.731l-0.036 0.189c-5.632 22.656-9.344 45.888-16.896 67.84-52.156 164.215-184.15 288.918-349.211 329.854l-3.365 0.706c-11.264 3.072-22.784 4.864-34.24 7.104-14.103 2.123-24.792 14.156-24.792 28.686 0 1.417 0.102 2.811 0.298 4.174l-0.018-0.156c1.472 14.464 13.888 25.216 34.496 25.152zM838.016 496.448c0.021-0.414 0.033-0.9 0.033-1.388 0-15.038-11.348-27.424-25.948-29.064l-0.133-0.012c-1.026-0.129-2.213-0.203-3.417-0.203-14.523 0-26.54 10.726-28.564 24.688l-0.018 0.155c-10.46 59.448-38.793 110.992-79.166 150.208l-0.066 0.064c-37.614 37.644-86.284 64.236-140.722 74.489l-1.678 0.263c-20.032 3.712-29.76 14.528-28.672 32 0.794 15.021 13.167 26.901 28.315 26.901 1.686 0 3.338-0.147 4.943-0.429l-0.17 0.025c106.181-17.785 193.932-83.884 241.113-174.482l0.871-1.838c14.948-27.477 26.253-59.388 32.174-93.153l0.274-1.887c0.576-2.688 0.768-4.992 0.832-6.336z" />
<glyph unicode="&#xe90b;" glyph-name="search2" d="M997.23 21.372l-282.887 282.887c54.697 67.169 87.829 153.796 87.829 248.16 0 217.878-176.625 394.503-394.503 394.503s-394.503-176.625-394.503-394.503c0-217.878 176.625-394.503 394.503-394.503 94.365 0 180.991 33.132 248.881 88.397l-0.721-0.568 282.887-282.887c7.611-8.393 18.556-13.642 30.728-13.642 22.88 0 41.428 18.548 41.428 41.428 0 12.172-5.249 23.118-13.607 30.697l-0.035 0.031zM408.371 240.801c-171.682 0-310.857 139.175-310.857 310.857s139.175 310.857 310.857 310.857c171.682 0 310.857-139.175 310.857-310.857 0-0.010 0-0.021 0-0.031v0.002c-0.183-171.608-139.249-310.674-310.839-310.857h-0.018z" />
<glyph unicode="&#xe90c;" glyph-name="twitter" horiz-adv-x="1291" d="M1290.906 838.813c-44.338-19.714-95.766-34.043-149.63-40.427l-2.545-0.245c54.499 31.988 95.651 81.719 115.939 141.119l0.544 1.833c-48.477-28.56-104.855-50.333-164.807-62.153l-3.415-0.561c-48.701 50.36-116.876 81.624-192.354 81.624-0.465 0-0.931-0.001-1.396-0.004h0.072c-0.912 0.011-1.989 0.018-3.068 0.018-143.348 0-259.791-115.195-261.807-258.064l-0.002-0.19c0.216-21.124 2.995-41.499 8.040-60.962l-0.385 1.752c-219.547 10.438-413.301 112.723-545.050 268.995l-0.936 1.139c-22.536-37.058-35.876-81.865-35.876-129.789 0-0.056 0-0.112 0-0.168v0.009c0.32-89.899 46.757-168.882 116.876-214.561l0.991-0.605c-44.146 1.36-85.245 13.189-121.277 33.071l1.382-0.699c0-1.107 0-2.213 0-3.32 1.202-125.735 91.348-230.069 210.483-253.176l1.639-0.265c-20.984-5.803-45.080-9.137-69.954-9.137-17.659 0-34.926 1.681-51.649 4.891l1.707-0.273c36.12-104.371 132.986-178.23 247.287-179.565l0.159-0.001c-89.775-69.058-203.778-110.675-327.502-110.675-0.55 0-1.1 0.001-1.65 0.002h0.085c-0.172 0-0.375 0-0.579 0-22.057 0-43.809 1.307-65.183 3.847l2.585-0.25c114.803-72.862 254.628-116.115 404.556-116.115 0.437 0 0.874 0 1.311 0.001h-0.067c4.339-0.092 9.453-0.144 14.58-0.144 406.985 0 737.141 328.945 739.101 735.469l0.001 0.187c0 11.16 0 22.319-0.738 33.386 52.145 36.92 96.103 81.348 131.379 132.25l1.152 1.757z" />
<glyph unicode="&#xe90d;" glyph-name="youtube" horiz-adv-x="1457" d="M728.603-64c-15.262-0.192-33.287-0.301-51.338-0.301-182.634 0-362.653 11.19-539.412 32.922l21.19-2.124c-62.177 17.57-110.284 65.195-128.214 125.78l-0.332 1.309c-19.424 102.541-30.535 220.497-30.535 341.048 0 4.224 0.014 8.444 0.041 12.661l-0.003-0.648c-0.014 2.722-0.022 5.94-0.022 9.161 0 120.601 11.105 238.608 32.348 353.055l-1.829-11.862c16.532 64.177 65.114 114.070 127.242 132.176l1.304 0.326c155.435 19.612 335.296 30.804 517.77 30.804 18.209 0 36.391-0.111 54.547-0.334l-2.758 0.027c15.487 0.181 33.784 0.284 52.105 0.284 182.328 0 362.274-10.198 539.299-30.056l-21.741 1.981c63.401-18.443 111.949-68.337 128.162-131.222l0.28-1.28c19.424-102.553 30.535-220.521 30.535-341.084 0-4.212-0.014-8.42-0.041-12.625l0.003 0.648c0.007-1.863 0.010-4.071 0.010-6.279 0-120.698-11.101-238.804-32.337-353.351l1.829 11.878c-16.494-64.165-65.042-114.059-127.139-132.176l-1.303-0.326c-155.347-19.549-335.111-30.704-517.482-30.704-18.349 0-36.672 0.113-54.968 0.338l2.786-0.027zM579.552 663.25v-433.207l380.851 216.603-380.851 216.603z" />
<glyph unicode="&#xe90e;" glyph-name="calendar-check-alt" d="M469.333 138.667h-256c-67.285 0-96 28.715-96 96v352h704v-96c0-17.673 14.327-32 32-32s32 14.327 32 32v0 192c0.611 4.988 0.96 10.763 0.96 16.619 0 79.718-64.624 144.341-144.341 144.341-5.856 0-11.631-0.349-17.304-1.027l0.686 0.067h-53.333v32c0 17.673-14.327 32-32 32s-32-14.327-32-32v0-32h-277.333v32c0 17.673-14.327 32-32 32s-32-14.327-32-32v0-32h-53.333c-4.988 0.611-10.763 0.96-16.619 0.96-79.718 0-144.341-64.624-144.341-144.341 0-5.856 0.349-11.631 1.027-17.304l-0.067 0.686v-448c-0.611-4.988-0.96-10.763-0.96-16.619 0-79.718 64.624-144.341 144.341-144.341 5.856 0 11.631 0.349 17.304 1.027l-0.686-0.067h256c17.673 0 32 14.327 32 32s-14.327 32-32 32v0zM213.333 778.667h53.333v-32c0-17.673 14.327-32 32-32s32 14.327 32 32v0 32h277.333v-32c0-17.673 14.327-32 32-32s32 14.327 32 32v0 32h53.333c67.285 0 96-28.715 96-96v-32h-704v32c0 67.285 28.715 96 96 96zM342.187 448c-0.001-23.563-19.103-42.665-42.667-42.665s-42.667 19.103-42.667 42.667c0 23.414 18.86 42.423 42.217 42.664h0.45c23.564 0 42.667-19.103 42.667-42.667v0zM512.853 448c-0.001-23.563-19.103-42.665-42.667-42.665s-42.667 19.103-42.667 42.667c0 23.414 18.86 42.423 42.217 42.664h0.45c23.564 0 42.667-19.103 42.667-42.667v0zM768 394.667c-111.93 0-202.667-90.737-202.667-202.667s90.737-202.667 202.667-202.667c111.93 0 202.667 90.737 202.667 202.667v0c-0.146 111.871-90.795 202.521-202.652 202.667h-0.014zM768 53.333c-76.583 0-138.667 62.083-138.667 138.667s62.083 138.667 138.667 138.667c76.583 0 138.667-62.083 138.667-138.667v0c-0.097-76.544-62.122-138.57-138.657-138.667h-0.009zM843.947 250.197c5.795-5.792 9.38-13.794 9.38-22.635s-3.585-16.843-9.38-22.634l-71.126-71.126c-5.794-5.772-13.787-9.341-22.613-9.341s-16.819 3.569-22.614 9.342l0.001-0.001-35.541 35.584c-5.321 5.699-8.588 13.376-8.588 21.815 0 17.673 14.327 32 32 32 8.44 0 16.116-3.267 21.834-8.606l-0.019 0.017 12.8-12.8 48.512 48.469c5.787 5.806 13.791 9.398 22.635 9.398 8.886 0 16.925-3.627 22.717-9.48l0.003-0.003zM342.187 277.333c-0.001-23.563-19.103-42.665-42.667-42.665s-42.667 19.103-42.667 42.667c0 23.414 18.86 42.423 42.217 42.664h0.45c23.564 0 42.667-19.103 42.667-42.667v0z" />
<glyph unicode="&#xe90f;" glyph-name="calendar-clock" d="M469.333 138.667h-256c-67.285 0-96 28.715-96 96v352h704v-96c0-17.673 14.327-32 32-32s32 14.327 32 32v0 192c0.611 4.988 0.96 10.763 0.96 16.619 0 79.718-64.624 144.341-144.341 144.341-5.856 0-11.631-0.349-17.304-1.027l0.686 0.067h-53.333v32c0 17.673-14.327 32-32 32s-32-14.327-32-32v0-32h-277.333v32c0 17.673-14.327 32-32 32s-32-14.327-32-32v0-32h-53.333c-4.988 0.611-10.763 0.96-16.619 0.96-79.718 0-144.341-64.624-144.341-144.341 0-5.856 0.349-11.631 1.027-17.304l-0.067 0.686v-448c-0.611-4.988-0.96-10.763-0.96-16.619 0-79.718 64.624-144.341 144.341-144.341 5.856 0 11.631 0.349 17.304 1.027l-0.686-0.067h256c17.673 0 32 14.327 32 32s-14.327 32-32 32v0zM213.333 778.667h53.333v-32c0-17.673 14.327-32 32-32s32 14.327 32 32v0 32h277.333v-32c0-17.673 14.327-32 32-32s32 14.327 32 32v0 32h53.333c67.285 0 96-28.715 96-96v-32h-704v32c0 67.285 28.715 96 96 96zM342.187 448c-0.001-23.563-19.103-42.665-42.667-42.665s-42.667 19.103-42.667 42.667c0 23.414 18.86 42.423 42.217 42.664h0.45c23.564 0 42.667-19.103 42.667-42.667v0zM512.853 448c-0.001-23.563-19.103-42.665-42.667-42.665s-42.667 19.103-42.667 42.667c0 23.414 18.86 42.423 42.217 42.664h0.45c23.564 0 42.667-19.103 42.667-42.667v0zM768 394.667c-111.93 0-202.667-90.737-202.667-202.667s90.737-202.667 202.667-202.667c111.93 0 202.667 90.737 202.667 202.667v0c-0.146 111.871-90.795 202.521-202.652 202.667h-0.014zM768 53.333c-76.583 0-138.667 62.083-138.667 138.667s62.083 138.667 138.667 138.667c76.583 0 138.667-62.083 138.667-138.667v0c-0.097-76.544-62.122-138.57-138.657-138.667h-0.009zM342.187 277.333c-0.001-23.563-19.103-42.665-42.667-42.665s-42.667 19.103-42.667 42.667c0 23.414 18.86 42.423 42.217 42.664h0.45c23.564 0 42.667-19.103 42.667-42.667v0zM836.352 168.917c6.021-5.826 9.758-13.98 9.758-23.007 0-17.673-14.327-32-32-32-9.037 0-17.2 3.746-23.019 9.771l-45.705 45.705c-5.799 5.779-9.387 13.774-9.387 22.606 0 0.003 0 0.005 0 0.008v0 64c0 17.673 14.327 32 32 32s32-14.327 32-32v0-50.731z" />
<glyph unicode="&#xe910;" glyph-name="send-fill" d="M656.519-64c-42.578 0.11-78.499 28.487-89.996 67.35l-0.169 0.666-110.746 387.553-387.592 110.746c-39.646 11.755-68.073 47.855-68.073 90.595 0 42.596 28.236 78.597 67.013 90.307l0.668 0.173 917.762 275.317c2.586 0.807 5.56 1.272 8.642 1.272 16.563 0 29.99-13.427 29.99-29.99 0-3.082-0.465-6.056-1.329-8.855l0.056 0.213-275.356-917.88c-11.867-39.324-47.768-67.469-90.242-67.469-0.221 0-0.442 0.001-0.662 0.002h0.034z" />
<glyph unicode="&#xe911;" glyph-name="logout" d="M512.056-63.887c-0.014 0-0.030 0-0.047 0-282.739 0-511.944 229.205-511.944 511.944s229.205 511.944 511.944 511.944c131.105 0 250.7-49.283 341.269-130.333l-0.49 0.431c7.097-7.216 11.479-17.122 11.479-28.051 0-22.099-17.915-40.013-40.013-40.013-9.37 0-17.987 3.221-24.806 8.615l0.084-0.064c-75.919 67.043-176.274 107.971-286.188 107.971-238.315 0-431.69-192.406-433.26-430.351l-0.001-0.149c1.666-238.022 195.004-430.332 433.26-430.332 109.914 0 210.269 40.929 286.656 108.377l-0.467-0.405c7.159 6.804 16.862 10.989 27.543 10.989 22.099 0 40.013-17.915 40.013-40.013 0-12.28-5.532-23.268-14.24-30.608l-0.060-0.049c-89.964-80.616-209.455-129.902-340.457-129.902-0.097 0-0.194 0-0.291 0h0.015zM826.301 216.092c-0.032 0-0.071 0-0.109 0-22.099 0-40.013 17.915-40.013 40.013 0 11.161 4.569 21.254 11.939 28.512l134.472 132.218c7.157 7.142 11.584 17.016 11.584 27.925s-4.428 20.783-11.584 27.924l-0.001 0.001-134.467 130.691c-8.015 7.342-13.022 17.856-13.022 29.539 0 22.099 17.915 40.013 40.013 40.013 11.304 0 21.514-4.688 28.791-12.226l0.011-0.012 134.918-131.255c21.74-21.649 35.192-51.606 35.192-84.704s-13.453-63.055-35.188-84.7l-0.004-0.004-134.58-132.325c-7.167-7.137-17.039-11.564-27.944-11.609h-0.009zM826.301 408.1h-542.094c-21.443 0.83-38.512 18.414-38.512 39.985s17.069 39.155 38.437 39.983l0.075 0.002h542.094c22.099 0 40.013-17.915 40.013-40.013s-17.915-40.013-40.013-40.013v0z" />
<glyph unicode="&#xe912;" glyph-name="setting" horiz-adv-x="937" d="M468.736-64c-0.214-0.001-0.468-0.002-0.721-0.002-66.487 0-120.454 53.609-121.032 119.96v1.079c-0.034 14.621-9.196 27.094-22.088 32.023l-0.236 0.079c-39.372 15.45-73.372 35.36-103.68 59.681l0.768-0.596c-6.049 4.942-13.857 7.936-22.365 7.936-6.319 0-12.251-1.652-17.39-4.547l0.178 0.092c-17.238-9.751-37.856-15.497-59.815-15.497-45.037 0-84.429 24.168-105.914 60.243l-0.312 0.566c-9.988 16.896-15.89 37.235-15.89 58.952 0 11.425 1.634 22.469 4.68 32.911l-0.207-0.829c9.018 31.397 29.702 56.918 56.941 72.086l0.608 0.311 0.512 0.307c10.611 5.918 17.67 17.075 17.67 29.88 0 1.487-0.095 2.952-0.28 4.389l0.018-0.17c-2.409 16.158-3.784 34.807-3.784 53.776 0 19.849 1.506 39.347 4.41 58.385l-0.268-2.133c0.182 1.331 0.285 2.868 0.285 4.43 0 13.015-7.194 24.35-17.823 30.244l-0.177 0.090-0.666 0.358c-27.783 15.487-48.412 40.987-57.188 71.504l-0.207 0.842c-2.839 9.613-4.473 20.656-4.473 32.082 0 21.717 5.902 42.056 16.189 59.499l-0.299-0.548c21.797 36.64 61.189 60.809 106.226 60.809 21.96 0 42.577-5.746 60.431-15.816l-0.616 0.319 2.458-1.382c4.961-2.762 10.882-4.387 17.182-4.387 8.482 0 16.276 2.947 22.414 7.872l-0.070-0.055c28.915 22.889 62.141 42.188 97.953 56.366l2.655 0.927c13.18 5.003 22.394 17.492 22.477 32.143v0.010c1.4 66.16 55.363 119.257 121.728 119.257s120.328-53.097 121.726-119.127l0.002-0.13v-0.819c0.080-14.607 9.223-27.058 22.087-32.022l0.236-0.080c37.917-15.201 70.654-34.446 99.97-57.803l-0.796 0.612c6.084-4.918 13.915-7.895 22.441-7.895 6.282 0 12.187 1.616 17.321 4.456l-0.184-0.093 3.533 1.997c17.265 9.782 37.919 15.547 59.919 15.547 45.024 0 84.409-24.145 105.913-60.192l0.312-0.564c9.985-16.894 15.885-37.23 15.885-58.943 0-11.485-1.651-22.584-4.727-33.073l0.209 0.829c-9.018-31.397-29.702-56.918-56.941-72.086l-0.608-0.311-2.765-1.536c-10.615-5.878-17.682-17.012-17.682-29.796 0-1.517 0.1-3.011 0.292-4.475l-0.019 0.172c2.576-16.718 4.048-36.004 4.048-55.633 0-18.608-1.322-36.907-3.878-54.808l0.24 2.051c-0.162-1.25-0.254-2.695-0.254-4.163 0-12.819 7.053-23.992 17.49-29.848l0.172-0.089 2.458-1.382c27.806-15.498 48.453-41.015 57.239-71.554l0.208-0.843c2.836-9.611 4.469-20.652 4.469-32.075 0-21.719-5.9-42.059-16.185-59.507l0.299 0.548c-21.797-36.64-61.189-60.809-106.226-60.809-21.96 0-42.577 5.746-60.431 15.816l0.616-0.319-1.434 0.768c-4.969 2.772-10.901 4.405-17.214 4.405-8.607 0-16.505-3.034-22.683-8.090l0.064 0.051c-29.161-23.599-62.688-43.471-98.897-58.094l-2.632-0.939c-13.032-5.044-22.116-17.454-22.17-31.993v-1.799c-0.694-66.317-54.615-119.81-121.031-119.81-0.236 0-0.472 0.001-0.708 0.002h0.036zM199.373 236.186c0.034 0 0.074 0 0.113 0 27.821 0 53.389-9.648 73.541-25.781l-0.233 0.181c23.412-18.809 50.358-34.595 79.458-46.114l2.104-0.734c43.48-16.68 73.793-58.069 73.83-106.543v-1.029c0.798-21.795 18.659-39.16 40.576-39.16s39.777 17.365 40.574 39.087l0.002 0.073v1.792c0.065 48.26 30.101 89.489 72.492 106.075l0.775 0.267c30.829 12.279 57.443 27.984 81.187 47.109l-0.598-0.466c19.956 16.236 45.686 26.070 73.713 26.070 21.052 0 40.809-5.548 57.887-15.263l-0.579 0.303 1.28-0.717c5.736-3.218 12.589-5.114 19.884-5.114 15.121 0 28.34 8.143 35.511 20.282l0.105 0.192c3.311 5.599 5.268 12.34 5.268 19.537 0 3.782-0.54 7.438-1.548 10.894l0.069-0.275c-3.007 10.437-9.888 18.919-18.946 23.961l-0.202 0.103-2.509 1.382c-35.304 19.574-58.805 56.62-58.805 99.155 0 5.424 0.382 10.759 1.121 15.979l-0.070-0.6c1.845 12.612 2.899 27.173 2.899 41.98 0 15.573-1.165 30.874-3.414 45.82l0.208-1.682c-0.642 4.547-1.008 9.799-1.008 15.136 0 42.603 23.344 79.754 57.939 99.359l0.567 0.295 2.918 1.638c9.334 5.148 16.273 13.671 19.233 23.885l0.070 0.281c0.939 3.182 1.479 6.838 1.479 10.62 0 7.197-1.957 13.938-5.367 19.718l0.099-0.181c-7.31 12.238-20.486 20.306-35.547 20.306-7.364 0-14.277-1.929-20.262-5.309l0.206 0.107-3.43-1.946c-16.5-9.401-36.255-14.942-57.304-14.942-27.77 0-53.288 9.646-73.384 25.77l0.23-0.179c-22.672 18.039-48.702 33.291-76.757 44.57l-2.091 0.742c-43.206 16.852-73.28 58.099-73.37 106.383v0.779c-0.798 21.795-18.659 39.16-40.576 39.16s-39.777-17.365-40.574-39.087l-0.002-0.073c-0.062-48.484-30.362-89.876-73.051-106.334l-0.78-0.264c-30.48-11.976-56.807-27.273-80.37-45.911l0.651 0.497c-19.799-15.743-45.163-25.258-72.75-25.258-21.108 0-40.914 5.57-58.030 15.321l0.578-0.303-2.304 1.28c-5.736 3.218-12.589 5.114-19.884 5.114-15.121 0-28.34-8.143-35.511-20.282l-0.105-0.192c-3.311-5.599-5.268-12.34-5.268-19.537 0-3.782 0.54-7.438 1.548-10.894l-0.069 0.275c3.007-10.437 9.888-18.919 18.946-23.961l0.202-0.103 0.768-0.461c35.465-19.978 59.025-57.39 59.025-100.305 0-5.506-0.388-10.922-1.138-16.221l0.071 0.609c-2.084-13.398-3.274-28.852-3.274-44.584 0-15.103 1.097-29.95 3.216-44.465l-0.198 1.651c0.694-4.703 1.090-10.131 1.090-15.652 0-42.513-23.498-79.537-58.215-98.793l-0.578-0.294-0.614-0.358c-9.334-5.148-16.273-13.671-19.233-23.885l-0.070-0.281c-0.939-3.182-1.479-6.838-1.479-10.62 0-7.197 1.957-13.938 5.367-19.718l-0.099 0.181c7.31-12.238 20.486-20.306 35.547-20.306 7.364 0 14.277 1.929 20.262 5.309l-0.206-0.107c16.475 9.423 36.207 14.985 57.237 15.002h0.005zM468.736 234.957c-117.661 0-213.043 95.383-213.043 213.043s95.383 213.043 213.043 213.043c117.661 0 213.043-95.383 213.043-213.043v0c-0.146-117.602-95.441-212.898-213.029-213.043h-0.014zM468.736 579.891c-72.841 0-131.891-59.050-131.891-131.891s59.050-131.891 131.891-131.891c72.841 0 131.891 59.050 131.891 131.891v0c-0.087 72.806-59.085 131.804-131.883 131.891h-0.008z" />
<glyph unicode="&#xe913;" glyph-name="change-password" horiz-adv-x="857" d="M634.756 620.186v135.997c0 113.3-91.848 205.148-205.148 205.148s-205.148-91.848-205.148-205.148v0-135.844c-125.62-8.777-224.23-112.724-224.459-239.752v-204.352c0.262-132.602 107.686-240.026 240.262-240.287h376.514c132.645 0.204 240.128 107.65 240.39 240.262v204.354c-0.227 126.294-97.666 229.758-221.468 239.568l-0.84 0.054zM429.608 881.424c69.020-0.087 124.948-56.015 125.035-125.027v-135.493h-250.071v135.28c0.087 69.020 56.015 124.948 125.027 125.035h0.008zM777.002 176.236c-0.087-88.455-71.771-160.138-160.218-160.226h-376.498c-88.433 0.117-160.087 71.789-160.174 160.217v204.337c0.087 88.455 71.771 160.138 160.218 160.226h376.498c88.455-0.087 160.138-71.771 160.226-160.218v-0.008zM548.701 318.483c0 0.013 0 0.028 0 0.043 0 66.368-53.802 120.169-120.169 120.169s-120.169-53.802-120.169-120.169c0-52.009 33.040-96.301 79.276-113.032l0.837-0.265v-58.958c0-22.123 17.934-40.056 40.056-40.056s40.056 17.934 40.056 40.056v0 58.958c47.032 17.029 80.045 61.277 80.113 113.246v0.008zM428.532 278.426c-22.123 0-40.056 17.934-40.056 40.056s17.934 40.056 40.056 40.056c22.123 0 40.056-17.934 40.056-40.056v0c-0.029-22.093-17.916-39.998-40-40.056h-0.006z" />
<glyph unicode="&#xe914;" glyph-name="account" d="M768 778.667h-512c-4.988 0.611-10.763 0.96-16.619 0.96-79.718 0-144.341-64.624-144.341-144.341 0-5.856 0.349-11.631 1.027-17.304l-0.067 0.686v-341.333c-0.611-4.988-0.96-10.763-0.96-16.619 0-79.718 64.624-144.341 144.341-144.341 5.856 0 11.631 0.349 17.304 1.027l-0.686-0.067h512c4.988-0.611 10.763-0.96 16.619-0.96 79.718 0 144.341 64.624 144.341 144.341 0 5.856-0.349 11.631-1.027 17.304l0.067-0.686v341.333c0.611 4.988 0.96 10.763 0.96 16.619 0 79.718-64.624 144.341-144.341 144.341-5.856 0-11.631-0.349-17.304-1.027l0.686 0.067zM864 277.333c0-67.285-28.715-96-96-96h-512c-67.285 0-96 28.715-96 96v224h704zM864 565.333h-704v53.333c0 67.285 28.715 96 96 96h512c67.285 0 96-28.715 96-96zM266.667 320c0 17.673 14.327 32 32 32v0h128c17.673 0 32-14.327 32-32s-14.327-32-32-32v0h-128c-17.673 0-32 14.327-32 32v0z" />
<glyph unicode="&#xe915;" glyph-name="reservations" d="M725.333 778.667h-11.52c-0.643 47.484-39.286 85.729-86.862 85.729-2.917 0-5.801-0.144-8.644-0.425l0.36 0.029h-213.333c-2.484 0.252-5.367 0.396-8.285 0.396-47.576 0-86.219-38.245-86.861-85.669l-0.001-0.061h-11.52c-4.988 0.611-10.763 0.96-16.619 0.96-79.718 0-144.341-64.624-144.341-144.341 0-5.856 0.349-11.631 1.027-17.304l-0.067 0.686v-426.667c-0.611-4.988-0.96-10.763-0.96-16.619 0-79.718 64.624-144.341 144.341-144.341 5.856 0 11.631 0.349 17.304 1.027l-0.686-0.067h426.667c4.988-0.611 10.763-0.96 16.619-0.96 79.718 0 144.341 64.624 144.341 144.341 0 5.856-0.349 11.631-1.027 17.304l0.067-0.686v426.667c0.611 4.988 0.96 10.763 0.96 16.619 0 79.718-64.624 144.341-144.341 144.341-5.856 0-11.631-0.349-17.304-1.027l0.686 0.067zM373.333 768c0 25.131 6.869 32 32 32h213.333c25.131 0 32-6.869 32-32v-42.667c0-25.131-6.869-32-32-32h-213.333c-25.131 0-32 6.869-32 32zM821.333 192c0-67.285-28.715-96-96-96h-426.667c-67.285 0-96 28.715-96 96v426.667c0 67.285 28.715 96 96 96h11.52c0.643-47.484 39.286-85.729 86.862-85.729 2.917 0 5.801 0.144 8.644 0.425l-0.36-0.029h213.333c2.484-0.252 5.367-0.396 8.285-0.396 47.576 0 86.219 38.245 86.861 85.669l0.001 0.061h11.52c67.285 0 96-28.715 96-96zM736 448c0-17.673-14.327-32-32-32v0h-170.667c-17.673 0-32 14.327-32 32s14.327 32 32 32v0h170.667c17.673 0 32-14.327 32-32v0zM736 277.333c0-17.673-14.327-32-32-32v0h-170.667c-17.673 0-32 14.327-32 32s14.327 32 32 32v0h170.667c17.673 0 32-14.327 32-32v0zM427.947 499.2c5.795-5.792 9.38-13.794 9.38-22.635s-3.585-16.843-9.38-22.634v0l-56.747-57.131c-5.785-5.793-13.781-9.376-22.613-9.376s-16.829 3.583-22.613 9.376v0l-28.459 28.416c-5.805 5.795-9.397 13.806-9.397 22.656 0 17.679 14.331 32.010 32.010 32.010 8.829 0 16.823-3.574 22.614-9.355v0l5.845-5.845 34.133 34.133c5.803 5.908 13.876 9.57 22.805 9.57 8.738 0 16.657-3.507 22.426-9.19l-0.004 0.004zM427.947 328.533c5.795-5.792 9.38-13.794 9.38-22.635s-3.585-16.843-9.38-22.634v0l-56.747-57.131c-5.785-5.793-13.781-9.376-22.613-9.376s-16.829 3.583-22.613 9.376v0l-28.459 28.416c-5.805 5.795-9.397 13.806-9.397 22.656 0 17.679 14.331 32.010 32.010 32.010 8.829 0 16.823-3.574 22.614-9.355v0l5.845-5.845 34.133 34.133c5.803 5.908 13.876 9.57 22.805 9.57 8.738 0 16.657-3.507 22.426-9.19l-0.004 0.004z" />
<glyph unicode="&#xe916;" glyph-name="your-trip" d="M707.942 925.491h-391.782c-5.725 0.701-12.352 1.101-19.073 1.101-91.504 0-165.683-74.179-165.683-165.683 0-6.721 0.4-13.348 1.178-19.859l-0.076 0.787v-734.618c0-0.009 0-0.021 0-0.032 0-20.275 16.436-36.71 36.71-36.71 6.706 0 12.993 1.798 18.403 4.939l-0.176-0.094 324.608 185.446 324.608-185.446c5.223-3.024 11.491-4.808 18.176-4.808 20.283 0 36.73 16.427 36.762 36.702v734.621c0.701 5.725 1.101 12.352 1.101 19.073 0 91.504-74.179 165.683-165.683 165.683-6.721 0-13.348-0.4-19.859-1.178l0.787 0.076zM818.125 70.451l-287.898 164.454c-5.235 3.046-11.521 4.845-18.227 4.845s-12.993-1.798-18.403-4.939l0.176 0.094-287.846-164.506v671.334c0 77.21 32.973 110.182 110.182 110.182h391.782c77.21 0 110.182-32.973 110.182-110.182zM660.429 653.466c6.659-6.646 10.778-15.834 10.778-25.984s-4.119-19.338-10.778-25.983l-163.227-163.227c-6.638-6.656-15.817-10.774-25.958-10.774s-19.321 4.118-25.958 10.773l-81.614 81.665c-6.643 6.643-10.752 15.821-10.752 25.958 0 20.275 16.436 36.711 36.711 36.711 10.137 0 19.315-4.109 25.958-10.752v0l55.654-55.654 137.267 137.267c6.64 6.671 15.83 10.799 25.984 10.799 10.129 0 19.298-4.108 25.933-10.748v0z" />
<glyph unicode="&#xe917;" glyph-name="eye" d="M4.523 445.739c-5.803-11.691-6.229-25.728 0-38.144 0 0 16.896-33.664 47.787-78.635 19.243-27.989 44.288-61.099 74.965-94.635 38.144-41.771 85.504-84.779 141.611-119.467 68.053-42.069 149.589-72.192 243.115-72.192s175.061 30.123 243.115 72.192c56.107 34.688 103.467 77.696 141.611 119.467 30.635 33.536 55.723 66.645 74.965 94.635 30.891 44.971 47.787 78.635 47.787 78.635 5.803 11.691 6.229 25.728 0 38.144 0 0-16.896 33.664-47.787 78.635-19.243 27.989-44.288 61.099-74.965 94.635-38.144 41.771-85.504 84.779-141.611 119.467-68.053 42.069-149.589 72.192-243.115 72.192s-175.061-30.123-243.115-72.192c-56.107-34.688-103.467-77.696-141.611-119.467-30.677-33.536-55.723-66.603-74.965-94.635-30.891-44.971-47.787-78.635-47.787-78.635zM91.307 426.667c6.955 11.989 17.365 29.056 31.317 49.408 17.493 25.429 40.107 55.296 67.627 85.376 34.347 37.589 75.733 74.923 123.477 104.448 57.6 35.584 123.776 59.435 198.272 59.435s140.672-23.851 198.229-59.435c47.744-29.525 89.131-66.859 123.477-104.448 27.477-30.080 50.133-59.947 67.627-85.376 13.995-20.352 24.405-37.376 31.317-49.408-6.955-11.989-17.365-29.056-31.317-49.408-17.493-25.429-40.107-55.296-67.627-85.376-34.347-37.589-75.733-74.923-123.477-104.448-57.557-35.584-123.733-59.435-198.229-59.435s-140.672 23.851-198.229 59.435c-47.744 29.525-89.131 66.859-123.477 104.448-27.477 30.080-50.133 59.947-67.627 85.376-13.995 20.352-24.405 37.419-31.36 49.408zM682.667 426.667c0 47.104-19.157 89.856-50.005 120.661s-73.557 50.005-120.661 50.005-89.856-19.157-120.661-50.005-50.005-73.557-50.005-120.661 19.157-89.856 50.005-120.661 73.557-50.005 120.661-50.005 89.856 19.157 120.661 50.005 50.005 73.557 50.005 120.661zM597.333 426.667c0-23.595-9.515-44.843-25.003-60.331s-36.736-25.003-60.331-25.003-44.843 9.515-60.331 25.003-25.003 36.736-25.003 60.331 9.515 44.843 25.003 60.331 36.736 25.003 60.331 25.003 44.843-9.515 60.331-25.003 25.003-36.736 25.003-60.331z" />
<glyph unicode="&#xe918;" glyph-name="share" d="M827.077 329.846c-71.035-0.142-133.198-37.994-167.55-94.596l-0.491-0.872-279.946 139.947c9.236 21.775 14.604 47.098 14.604 73.675s-5.368 51.901-15.079 74.945l0.475-1.27 279.946 139.947c35.048-56.269 96.578-93.162 166.725-93.162 108.12 0 195.768 87.648 195.768 195.768s-87.648 195.768-195.768 195.768c-108.12 0-195.768-87.648-195.768-195.768 0-0.405 0.001-0.809 0.004-1.213v0.062c0.31-9.632 1.272-18.79 2.848-27.735l-0.17 1.163-297.433-148.716c-35.581 35.312-84.592 57.134-138.7 57.134-108.758 0-196.923-88.165-196.923-196.923s88.165-196.923 196.923-196.923c54.108 0 103.119 21.822 138.712 57.146l-0.012-0.012 297.433-148.716c-1.407-7.782-2.368-16.939-2.67-26.263l-0.008-0.309c0-108.758 88.165-196.923 196.923-196.923s196.923 88.165 196.923 196.923c0 108.758-88.165 196.923-196.923 196.923v0zM827.077 881.231c65.255 0 118.154-52.899 118.154-118.154s-52.899-118.154-118.154-118.154c-65.255 0-118.154 52.899-118.154 118.154v0c0.090 65.218 52.935 118.064 118.145 118.154h0.009zM196.923 329.846c-65.255 0-118.154 52.899-118.154 118.154s52.899 118.154 118.154 118.154c65.255 0 118.154-52.899 118.154-118.154v0c-0.090-65.218-52.935-118.064-118.145-118.154h-0.009zM827.077 14.769c-65.255 0-118.154 52.899-118.154 118.154s52.899 118.154 118.154 118.154c65.255 0 118.154-52.899 118.154-118.154v0c-0.090-65.218-52.935-118.064-118.145-118.154h-0.009z" />
<glyph unicode="&#xe919;" glyph-name="calendar" d="M768 800h-53.333v32c0 17.673-14.327 32-32 32s-32-14.327-32-32v0-32h-277.333v32c0 17.673-14.327 32-32 32s-32-14.327-32-32v0-32h-53.333c-4.988 0.611-10.763 0.96-16.619 0.96-79.718 0-144.341-64.624-144.341-144.341 0-5.856 0.349-11.631 1.027-17.304l-0.067 0.686v-448c-0.611-4.988-0.96-10.763-0.96-16.619 0-79.718 64.624-144.341 144.341-144.341 5.856 0 11.631 0.349 17.304 1.027l-0.686-0.067h512c4.988-0.611 10.763-0.96 16.619-0.96 79.718 0 144.341 64.624 144.341 144.341 0 5.856-0.349 11.631-1.027 17.304l0.067-0.686v448c0.611 4.988 0.96 10.763 0.96 16.619 0 79.718-64.624 144.341-144.341 144.341-5.856 0-11.631-0.349-17.304-1.027l0.686 0.067zM256 736h53.333v-32c0-17.673 14.327-32 32-32s32 14.327 32 32v0 32h277.333v-32c0-17.673 14.327-32 32-32s32 14.327 32 32v0 32h53.333c67.285 0 96-28.715 96-96v-32h-704v32c0 67.285 28.715 96 96 96zM768 96h-512c-67.285 0-96 28.715-96 96v352h704v-352c0-67.285-28.715-96-96-96zM384.853 405.333c-0.001-23.563-19.103-42.665-42.667-42.665s-42.667 19.103-42.667 42.667c0 23.414 18.86 42.423 42.217 42.664h0.45c23.564 0 42.667-19.103 42.667-42.667v0zM555.52 405.333c-0.001-23.563-19.103-42.665-42.667-42.665s-42.667 19.103-42.667 42.667c0 23.414 18.86 42.423 42.217 42.664h0.45c23.564 0 42.667-19.103 42.667-42.667v0zM726.187 405.333c-0.001-23.563-19.103-42.665-42.667-42.665s-42.667 19.103-42.667 42.667c0 23.414 18.86 42.423 42.217 42.664h0.45c23.564 0 42.667-19.103 42.667-42.667v0zM384.853 234.667c-0.001-23.563-19.103-42.665-42.667-42.665s-42.667 19.103-42.667 42.667c0 23.414 18.86 42.423 42.217 42.664h0.45c23.564 0 42.667-19.103 42.667-42.667v0zM555.52 234.667c-0.001-23.563-19.103-42.665-42.667-42.665s-42.667 19.103-42.667 42.667c0 23.414 18.86 42.423 42.217 42.664h0.45c23.564 0 42.667-19.103 42.667-42.667v0zM726.187 234.667c-0.001-23.563-19.103-42.665-42.667-42.665s-42.667 19.103-42.667 42.667c0 23.414 18.86 42.423 42.217 42.664h0.45c23.564 0 42.667-19.103 42.667-42.667v0z" />
<glyph unicode="&#xe91a;" glyph-name="close" d="M1024 857.539l-102.385 102.461-409.615-409.615-409.539 409.615-102.461-102.461 409.615-409.615-409.615-409.539 102.385-102.385 409.615 409.615 409.615-409.615 102.385 102.385-409.615 409.615z" />
<glyph unicode="&#xe91b;" glyph-name="successful" horiz-adv-x="1023" d="M511.159-63.942c-200.905 0.333-374.729 115.948-458.886 284.215l-1.345 2.97c-32.076 65.53-50.832 142.601-50.832 224.054 0 124.66 43.934 239.059 117.163 328.558l-0.733-0.924c95.018 113.374 236.685 184.953 395.070 184.953 45.215 0 89.067-5.833 130.846-16.789l-3.582 0.798c16.084-5.213 27.51-20.062 27.51-37.579 0-21.772-17.65-39.422-39.422-39.422-2.753 0-5.439 0.282-8.033 0.819l0.255-0.044c-32.316 8.591-69.417 13.524-107.67 13.524-134.061 0-253.969-60.596-333.829-155.892l-0.553-0.678c-61.334-74.945-98.503-171.737-98.503-277.21 0-68.936 15.878-134.164 44.176-192.226l-1.145 2.603c74.173-145.241 222.7-242.96 394.051-242.96 2.536 0 5.067 0.021 7.593 0.064l-0.38-0.005c234.047 6.714 421.219 198.047 421.219 433.097 0 38.531-5.030 75.886-14.468 111.447l0.683-3.024c-0.529 2.421-0.832 5.201-0.832 8.053 0 21.764 17.643 39.407 39.407 39.407 17.611 0 32.523-11.552 37.574-27.492l0.076-0.279c10.359-38.47 16.309-82.639 16.309-128.197 0-277.802-221.243-503.93-497.142-511.796l-0.726-0.016c-4.574-0.029-9.233-0.029-13.85-0.029zM510.857 325.197c-0.019 0-0.042 0-0.064 0-21.756 0-39.393 17.637-39.393 39.393 0 10.901 4.428 20.768 11.584 27.901l472.673 472.572c7.128 7.128 16.975 11.536 27.851 11.536 21.753 0 39.388-17.634 39.388-39.388 0-10.877-4.409-20.723-11.536-27.851l-472.643-472.629c-7.108-7.109-16.928-11.506-27.775-11.506-0.024 0-0.048 0-0.073 0h0.004zM510.857 325.197c-0.031 0-0.068 0-0.104 0-10.836 0-20.645 4.398-27.739 11.505l-167.108 167.122c-7.128 7.128-11.536 16.975-11.536 27.851 0 21.753 17.634 39.388 39.388 39.388 10.877 0 20.723-4.409 27.851-11.536l167.093-167.107c7.122-7.128 11.527-16.971 11.527-27.844 0-21.748-17.624-39.38-39.37-39.393h-0.001z" />
<glyph unicode="&#xe91c;" glyph-name="password" d="M714.667 605.867v55.467c0 111.93-90.737 202.667-202.667 202.667s-202.667-90.737-202.667-202.667v0-55.467c-82.688-11.008-128-65.835-128-157.867v-256c-0.611-4.988-0.96-10.763-0.96-16.619 0-79.718 64.624-144.341 144.341-144.341 5.856 0 11.631 0.349 17.304 1.027l-0.686-0.067h341.333c4.988-0.611 10.763-0.96 16.619-0.96 79.718 0 144.341 64.624 144.341 144.341 0 5.856-0.349 11.631-1.027 17.304l0.067-0.686v256c0 91.861-45.312 146.688-128 157.867zM512 800.171c76.544-0.097 138.57-62.122 138.667-138.657v-53.342h-277.333v53.163c0.097 76.544 62.122 138.57 138.657 138.667h0.009zM778.667 192.171c0-67.285-28.715-96-96-96h-341.333c-67.285 0-96 28.715-96 96v256c0 67.285 28.715 96 96 96h341.333c67.285 0 96-28.715 96-96zM566.187 362.837c-0.232-17.354-8.873-32.643-22.026-42.003l-0.161-0.109v-86.059c0-17.673-14.327-32-32-32s-32 14.327-32 32v0 86.955c-12.467 9.526-20.485 24.328-20.693 41.012v0.034c0 0.051 0 0.111 0 0.171 0 29.346 23.778 53.138 53.118 53.163h0.429c29.445-0.024 53.309-23.888 53.333-53.331v-0.002z" />
<glyph unicode="&#xe91d;" glyph-name="user" d="M512.384 501.333c-100.148 0-181.333 81.186-181.333 181.333s81.186 181.333 181.333 181.333c100.148 0 181.333-81.186 181.333-181.333v0c-0.121-100.099-81.235-181.212-181.322-181.333h-0.012zM512.384 800c-64.801 0-117.333-52.532-117.333-117.333s52.532-117.333 117.333-117.333c64.801 0 117.333 52.532 117.333 117.333v0c-0.049 64.782-52.551 117.285-117.329 117.333h-0.005zM682.539 32h-341.205c-103.253 0-160.128 56.533-160.128 159.189 0 113.579 64.256 246.144 245.333 246.144h170.667c181.077 0 245.333-132.565 245.333-246.144 0.128-102.656-56.747-159.189-159.872-159.189zM426.539 373.333c-3.898 0.32-8.438 0.503-13.021 0.503-93.267 0-168.875-75.608-168.875-168.875 0-4.848 0.204-9.647 0.605-14.392l-0.042 0.619c0-66.731 28.757-95.189 96.128-95.189h341.333c67.371 0 96.128 28.459 96.128 95.189 0.358 4.125 0.563 8.924 0.563 13.772 0 93.267-75.608 168.875-168.875 168.875-4.583 0-9.123-0.183-13.613-0.541l0.592 0.038z" />
<glyph unicode="&#xe91e;" glyph-name="checkmark, tick, approve, submit" d="M927.936 687.008l-68.288 68.288c-12.608 12.576-32.96 12.576-45.536 0l-409.44-409.44-194.752 196.16c-12.576 12.576-32.928 12.576-45.536 0l-68.288-68.288c-12.576-12.608-12.576-32.96 0-45.536l285.568-287.488c12.576-12.576 32.96-12.576 45.536 0l500.736 500.768c12.576 12.544 12.576 32.96 0 45.536z" />
<glyph unicode="&#xe91f;" glyph-name="envelope" d="M768 74.667h-512c-4.988-0.611-10.763-0.96-16.619-0.96-79.718 0-144.341 64.624-144.341 144.341 0 5.856 0.349 11.631 1.027 17.304l-0.067-0.686v384c-0.611 4.988-0.96 10.763-0.96 16.619 0 79.718 64.624 144.341 144.341 144.341 5.856 0 11.631-0.349 17.304-1.027l-0.686 0.067h512c4.988 0.611 10.763 0.96 16.619 0.96 79.718 0 144.341-64.624 144.341-144.341 0-5.856-0.349-11.631-1.027-17.304l0.067 0.686v-384c0.611-4.988 0.96-10.763 0.96-16.619 0-79.718-64.624-144.341-144.341-144.341-5.856 0-11.631 0.349-17.304 1.027l0.686-0.067zM256 714.667c-67.285 0-96-28.715-96-96v-384c0-67.285 28.715-96 96-96h512c67.285 0 96 28.715 96 96v384c0 67.285-28.715 96-96 96zM555.904 397.696l209.579 152.448c8.016 5.882 13.162 15.268 13.162 25.856 0 17.661-14.317 31.978-31.978 31.978-7.073 0-13.61-2.296-18.905-6.184l0.089 0.062-209.621-152.405c-1.723-1.267-3.888-2.028-6.229-2.028s-4.506 0.761-6.259 2.049l0.029-0.021-209.621 152.405c-5.206 3.825-11.743 6.122-18.816 6.122-17.661 0-31.978-14.317-31.978-31.978 0-10.588 5.146-19.974 13.073-25.794l0.089-0.062 209.579-152.448c12.147-8.931 27.399-14.292 43.904-14.292s31.757 5.361 44.111 14.437l-0.207-0.145z" />
<glyph unicode="&#xe920;" glyph-name="fill-boat" d="M977.53 236.763c-3.409 5.216-9.221 8.614-15.827 8.614-3.795 0-7.327-1.121-10.284-3.051l0.072 0.044-88.844-57.563h-79.336l-43.203 65.097c103.79 26.819 140.751 79.433 140.751 79.433-50.225 87.138-232.35 208.798-232.35 208.798h-0.439l-87.381 115.078c-3.47 4.675-8.973 7.672-15.176 7.672-10.409 0-18.846-8.438-18.846-18.846 0-4.403 1.51-8.453 4.040-11.662l-0.030 0.040 77.629-102.254-159.963-147.773c-233.253 34.718-151.333 21.821-382.952 60.416-24.040-13.41-24.844-23.82-18.481-31.208 22.343-23.88 41.477-51.167 56.459-80.904l0.909-1.991 19.188-42.837c436.59-48.518 457.021-54.248 538.819-46.982l44.251-51.931h-88.625c-0.202 0.008-0.439 0.012-0.678 0.012-10.409 0-18.846-8.438-18.846-18.846s8.438-18.846 18.846-18.846c0.238 0 0.476 0.004 0.712 0.013l-0.034-0.001h250.392c3.806 0.003 7.348 1.13 10.312 3.068l-0.072-0.044 93.428 60.465c5.191 3.419 8.57 9.221 8.57 15.812 0 3.8-1.123 7.338-3.056 10.3l0.044-0.072zM121.027 254.001c-58.1-66.706 26.673-105.96 26.673-105.96l336.725 1.56c26.718 6.274 46.309 29.897 46.324 58.098v0.002zM385.097 408.844l31.866 75.995c52.322-40.326 43.886-37.742 75.8-37.742l81.579 75.362h-82.895c-29.067 25.16-61.19 48.71-95.145 69.568l-3.183 1.819c-7.362 3.168-15.931 5.010-24.931 5.010-26.597 0-49.436-16.089-59.315-39.065l-0.16-0.42-55.028-130.926c11.898-2.048 119.198-17.798 131.316-19.505zM500.175 685.349c0-38.807-31.459-70.266-70.266-70.266s-70.266 31.459-70.266 70.266c0 38.807 31.459 70.266 70.266 70.266s70.266-31.459 70.266-70.266z" />
<glyph unicode="&#xe921;" glyph-name="hand-raise" horiz-adv-x="1523" d="M801.72 629.531c-56.153-13.654-104.284-42.372-141.403-81.613l-0.125-0.134c-0.924-0.953-1.962-1.788-3.094-2.484l-0.069-0.039c-102.183-66.321-159.939-15.852-162.178-12.866-65.362 58.858-5.402 157.558-2.843 161.68 28.050 46.124 59.961 85.972 96.314 121.269l0.147 0.142h-277.618l-120.452-397.324c1.365-0.748 2.536-1.647 3.55-2.697l0.004-0.004c159.865-172.174 334.316-326.495 522.798-462.588l10.331-7.1c8.236-6.212 18.643-9.949 29.923-9.949 27.599 0 49.972 22.373 49.972 49.972 0 14.134-5.868 26.897-15.3 35.987l-134.719 134.719c-3.001 2.894-4.865 6.95-4.865 11.441 0 8.774 7.113 15.887 15.887 15.887 4.527 0 8.611-1.893 11.505-4.931l135.208-135.208 31.739-32.521c11.034-11.204 26.369-18.146 43.326-18.146 33.577 0 60.796 27.219 60.796 60.796 0 16.621-6.669 31.683-17.478 42.658l0.008-0.008-123.615 128.982-23.493 24.275c-2.883 2.883-4.667 6.867-4.667 11.267 0 8.8 7.134 15.934 15.934 15.934 4.4 0 8.383-1.783 11.267-4.667v0l180.411-187.235c11.461-11.336 27.228-18.338 44.63-18.338 34.082 0 61.891 26.86 63.412 60.567l0.005 0.137c0.018 0.554 0.028 1.206 0.028 1.861 0 17.538-7.313 33.368-19.056 44.607l-0.023 0.022-183.788 177.781c-3.383 2.924-5.511 7.221-5.511 12.014 0 8.755 7.097 15.852 15.852 15.852 4.643 0 8.82-1.996 11.72-5.178l0.011-0.013 214.212-207.387c10.858-11.18 26.032-18.118 42.827-18.118 32.958 0 59.675 26.717 59.675 59.675 0 18.051-8.014 34.23-20.679 45.172l-0.076 0.064zM262.442 908.571c-70.549 32.487-153.079 51.431-240.033 51.431-7.881 0-15.726-0.156-23.531-0.464l1.122 0.035v-622.34h96.959c0.033 0 0.072 0 0.111 0 21.599 0 39.837 14.389 45.653 34.104l0.085 0.337 145.722 479.817c1.283 4.108 2.023 8.831 2.023 13.727 0 19.2-11.37 35.744-27.743 43.267l-0.296 0.122zM853.043 877.685c-16.765 7.095-36.26 11.218-56.718 11.218-18.132 0-35.508-3.239-51.58-9.17l1.032 0.333c-97.917-40.698-176.589-111.406-226.282-200.485l-1.187-2.317c0-0.96-48.728-79.33-2.843-121.554 1.599-1.422 42.65-35.542 121.873 14.928 43.409 46.362 100.936 79.025 165.702 91.122l1.879 0.292c0.397 0.035 0.858 0.055 1.325 0.055 4.141 0 7.912-1.588 10.735-4.188l-0.011 0.010 415.841-380.832c1.919-1.742 3.554-3.554 5.402-5.545 38.217 9.326 69.569 33.524 88.178 65.965l0.357 0.676-150.627 410.83zM1491.555 883.905c-1.433 0.011-3.128 0.017-4.823 0.017-93.474 0-182.678-18.282-264.232-51.464l4.694 1.689c-17.108-7.466-28.849-24.234-28.849-43.745 0-6.124 1.157-11.978 3.264-17.355l-0.112 0.323 176.608-480.634c7.063-18.606 24.69-31.615 45.372-31.739h99.817v622.091c-7.926 0.462-18.873 0.782-31.739 0.782z" />
<glyph unicode="&#xe922;" glyph-name="like" d="M910.482 551.887c-19.505 26.819-59.806 58.978-142.141 58.978h-137.045v108.008c0 0.039 0 0.084 0 0.13 0 56.222-28.531 105.781-71.904 134.987l-0.58 0.368c-15.82 10.691-35.32 17.066-56.308 17.066-43.702 0-80.949-27.64-95.212-66.393l-0.227-0.703-92.404-280.381h-128.366c-53.946-0.055-97.663-43.773-97.719-97.714v-303.987c0.069-53.941 43.778-97.649 97.712-97.719h495.257c108.398 0 134.973 52.687 154.502 111.348l86.821 260.559c20.285 61.050 15.896 116.248-12.386 155.453zM153.722 122.319v303.982c0.014 17.984 14.589 32.559 32.572 32.573h86.846v-369.128h-86.845c-17.968 0.042-32.521 14.603-32.549 32.57v0.003zM861.013 417.134l-86.821-260.559c-15.409-46.324-25.112-66.828-92.648-66.828h-343.235v369.128c14.311 0.029 26.453 9.281 30.799 22.128l0.067 0.23 99.304 301.422c5.314 13.907 18.546 23.605 34.044 23.605 7.511 0 14.491-2.278 20.285-6.181l-0.13 0.082c26.36-17.735 43.471-47.456 43.471-81.174 0-0.039 0-0.079 0-0.118v0.006-140.581c0-17.99 14.583-32.573 32.573-32.573h169.618c30.281 0 70.266-5.51 89.283-31.915 8.188-14.991 13.004-32.838 13.004-51.81 0-16.249-3.532-31.673-9.871-45.546l0.281 0.685z" />
<glyph unicode="&#xe923;" glyph-name="send" d="M980.823 916.823c-26.475 26.699-63.169 43.228-103.724 43.228-12.818 0-25.249-1.651-37.095-4.752l1.017 0.226-688.538-172.135c-88.19-22.603-152.333-101.375-152.333-195.128 0-94.739 65.499-174.18 153.684-195.509l1.374-0.281 243.857-57.378 57.378-243.857c20.457-89.388 99.3-155.067 193.483-155.067 0.342 0 0.683 0.001 1.025 0.003h1.41c0.683-0.008 1.489-0.013 2.297-0.013 93.187 0 171.35 64.325 192.509 150.995l0.28 1.357 172.135 688.538c2.868 10.813 4.515 23.228 4.515 36.027 0 40.57-16.548 77.276-43.262 103.735l-0.011 0.011zM943.125 796.099l-172.135-688.538c-11.84-53.424-58.81-92.786-114.973-92.786-1.629 0-3.25 0.033-4.863 0.099l0.231-0.007c-0.433-0.006-0.944-0.009-1.456-0.009-57.066 0-104.782 40.033-116.597 93.546l-0.147 0.792-57.923 246.411 222.197 222.254c6.832 7.070 11.043 16.713 11.043 27.338 0 21.739-17.623 39.361-39.361 39.361-10.626 0-20.268-4.21-27.349-11.054l-222.215-222.243-246.325 57.981c-54.517 13.119-94.398 61.463-94.398 119.121 0 57.046 39.038 104.974 91.857 118.527l0.848 0.185 688.538 172.135c5.055 1.329 10.858 2.093 16.84 2.094h0.001c37.716-0.2 68.214-30.822 68.214-68.566 0-5.879-0.74-11.584-2.131-17.029l0.103 0.475z" />
<glyph unicode="&#xe924;" glyph-name="boat" horiz-adv-x="1406" d="M1209.601-16.311h-358.649c-30.377 0-55.002 24.625-55.002 55.002s24.625 55.002 55.002 55.002v0h66.014l-14.682 17.232c-20.118-1.597-39.059-2.606-60.662-2.606-69.208 0-159.711 10.199-428.11 40.46-73.999 8.406-166.099 18.717-274.031 30.821-10.035 1.17-18.361 7.494-22.344 16.216l-0.072 0.175-27.487 61.363c-21.637 42.878-47.577 79.762-78.058 112.345l0.248-0.267c-7.201 7.924-11.61 18.499-11.61 30.103 0 2.639 0.228 5.225 0.665 7.738l-0.039-0.268c7.211 22.602 23.52 40.495 44.51 49.673l0.517 0.201c3.932 2.233 8.637 3.55 13.65 3.55 1.631 0 3.23-0.139 4.785-0.407l-0.166 0.024 128.89-21.519c145.701-24.377 145.701-24.377 298.155-46.989l107.903-16.027 200.563 185.293-95.799 126.088c-6.986 9.126-11.195 20.701-11.195 33.259 0 30.377 24.626 55.003 55.003 55.003 17.82 0 33.66-8.474 43.711-21.612l0.097-0.132 121.52-160.019c28.58-19.277 267.67-182.911 339.036-306.757 2.359-4.018 3.752-8.85 3.752-14.007 0-6.036-1.909-11.627-5.156-16.201l0.058 0.087c-2.214-3.138-51.332-71.197-180.165-113.815l32.503-48.922h90.391l120.148 77.782c11.224 7.419 24.898 12.008 39.613 12.466l0.119 0.003c0.181 0.002 0.394 0.004 0.608 0.004 20.85 0 38.804-12.397 46.894-30.222l0.131-0.323c3.232-6.198 5.128-13.536 5.128-21.317 0-12.521-4.909-23.895-12.907-32.304l0.019 0.020c-5.142-6.763-10.657-12.731-16.69-18.134l-0.121-0.107c-0.976-0.866-2.046-1.687-3.173-2.428l-0.106-0.065-133.821-86.608c-8.354-5.491-18.58-8.784-29.57-8.854h-0.018zM988.247 39.728h89.13c-5.342 2.191-9.725 5.808-12.797 10.379l-0.064 0.1-61.867 93.109c-2.929 4.358-4.675 9.723-4.675 15.496 0 12.974 8.818 23.888 20.787 27.077l0.196 0.044c67.595 15.263 126.321 46.648 174.039 89.947l-0.318-0.284c-74.812 108.407-279.887 250.13-309.755 270.444-4.447 1.99-8.149 4.946-10.962 8.619l-0.049 0.067-7.593 10.003c0.614-2.188 0.967-4.701 0.967-7.296 0-8.128-3.461-15.448-8.99-20.566l-0.018-0.017-229.115-211.659c-4.98-4.617-11.672-7.449-19.025-7.449-1.453 0-2.881 0.111-4.275 0.324l0.156-0.020-121.156 17.989c-152.986 22.696-152.986 22.696-299.192 47.157l-118.634 19.81c-2.101-1.401-3.783-2.634-5.128-3.699 31.469-34.306 58.438-73.487 79.503-116.106l1.305-2.921 20.931-46.708c101.122-11.208 187.731-21.015 258.2-28.972 266.185-30.009 355.847-40.124 421.833-40.124 24.629 0 45.868 1.429 70.049 3.586 0.749 0.071 1.62 0.112 2.5 0.112 8.517 0 16.146-3.8 21.285-9.797l0.032-0.038 63.408-74.392c4.163-4.86 6.697-11.223 6.697-18.178 0-11.667-7.131-21.668-17.271-25.884l-0.186-0.068zM127.685 145.362l625.535-70.693 0.841-24.153c0.004-0.362 0.007-0.791 0.007-1.22 0-53.329-36.924-98.035-86.601-109.946l-0.77-0.156-3.446-0.897-492.022-2.326-5.604 2.634c-38.882 17.851-68.294 50.691-81.187 90.926l-0.294 1.062c-1.015 5.811-1.596 12.503-1.596 19.33 0 33.046 13.598 62.916 35.505 84.32l0.023 0.022zM692.586 25.13l-541.112 61.139c-8.159-9.747-13.114-22.419-13.114-36.248 0-2.661 0.183-5.279 0.538-7.843l-0.034 0.297c8.274-22.218 24.293-39.928 44.7-50.196l0.524-0.239 471.68 2.186c16.224 4.156 29.311 15.095 36.282 29.539l0.143 0.33zM510.011 336.202v0c-0.029 0-0.063 0-0.097 0-1.469 0-2.911 0.112-4.32 0.328l0.157-0.020-190.532 24.685c-13.85 1.844-24.422 13.581-24.422 27.788 0 3.907 0.8 7.627 2.244 11.006l-0.069-0.183 89.326 213.116c18.729 43.711 61.385 73.776 111.062 73.776 16.782 0 32.762-3.431 47.278-9.63l-0.786 0.298c41.361-23.011 77.087-48.259 109.821-76.847l-0.741 0.634c10.395-8.126 21.071-16.503 32.306-25.218l117.85-17.54c13.598-2.081 23.893-13.695 23.893-27.714 0-7.651-3.067-14.586-8.038-19.643l-125.047-127.513c-5.088-5.188-12.171-8.405-20.006-8.406v0c-0.455-0.010-0.992-0.016-1.529-0.016-28.627 0-53.515 16.013-66.193 39.571l-0.197 0.4c-8.696 12.4-17.761 23.279-27.641 33.358l0.042-0.043c-28.804-71.029-36.089-88.962-38.022-93.697-4.013-10.874-14.286-18.488-26.338-18.493h-0.001zM358.845 412.079l133.289-17.288 45.083 111.097c4.278 10.34 14.286 17.482 25.962 17.482 6.468 0 12.425-2.192 17.167-5.873l-0.064 0.047c25.966-19.705 48.123-42.664 66.373-68.572l0.649-0.972c3.552-5.761 7.7-10.711 12.463-14.992l0.062-0.055 76.605 78.034-70.693 10.535c-4.978 0.779-9.389 2.765-13.062 5.65l0.061-0.046c-13.505 10.423-26.142 20.314-38.359 29.869-28.376 24.451-59.829 47.152-93.156 67.038l-3.063 1.693c-7.336 3.149-15.875 4.98-24.841 4.98-26.554 0-49.357-16.060-59.226-38.997l-0.16-0.419zM556.887 960c71.060 0 128.665-57.605 128.665-128.665s-57.605-128.665-128.665-128.665c-71.060 0-128.665 57.605-128.665 128.665v0c0.127 71.009 57.657 128.538 128.653 128.665h0.012zM556.887 758.708c40.111 0 72.626 32.516 72.626 72.626s-32.516 72.626-72.626 72.626c-40.111 0-72.626-32.516-72.626-72.626v0c0.127-40.059 32.567-72.499 72.614-72.626h0.012z" />
<glyph unicode="&#xe925;" glyph-name="location-fill" horiz-adv-x="798" d="M399.36 960c-0.98 0.009-2.138 0.014-3.298 0.014-217.315 0-393.754-175.013-396.060-391.782l-0.002-0.219c0-0.030 0-0.065 0-0.1 0-72.564 19.999-140.456 54.786-198.466l-0.975 1.754c9.193-15.438 18.201-28.558 27.949-41.072l-0.66 0.88 300.698-395.008h34.662l300.698 395.11c9.084 11.632 18.092 24.752 26.296 38.409l0.993 1.783c33.812 56.256 53.811 124.148 53.811 196.71v0c-2.31 216.987-178.748 391.997-396.062 391.997-0.998 0-1.995-0.004-2.991-0.011l0.154 0.001zM399.36 437.76c-70.775 1.323-127.642 59.008-127.642 129.975 0 71.795 58.202 129.997 129.997 129.997 71.788 0 129.985-58.189 129.997-129.974v-0.001c-0.75-71.957-59.257-130.001-131.321-130.001-0.362 0-0.724 0.001-1.086 0.004h0.055z" />
<glyph unicode="&#xe926;" glyph-name="email" horiz-adv-x="1377" d="M803.489 293.022c-32.387-21.666-72.225-34.576-115.079-34.576s-82.693 12.91-115.839 35.054l0.76-0.478-564.165 372.113c-3.101 2.067-6.202 4.203-9.165 6.409v-610.403c0.312-69.409 56.651-125.555 126.104-125.555 0.218 0 0.437 0.001 0.655 0.002h1123.196c0.185-0.001 0.403-0.002 0.621-0.002 69.453 0 125.791 56.146 126.104 125.525v610.916c-2.963-2.205-6.064-4.41-9.165-6.478zM53.887 732.529l564.234-376.179c19.749-13.379 44.104-21.358 70.322-21.358s50.573 7.98 70.769 21.643l-0.446-0.285 564.303 376.179c32.675 21.965 53.888 58.793 53.888 100.575 0 0.060 0 0.121 0 0.181v-0.009c-0.078 69.957-56.768 126.647-126.718 126.725h-1123.513c-69.981-0.078-126.686-56.808-126.725-126.79v-0.004c0-0.030 0-0.067 0-0.103 0-41.782 21.212-78.61 53.455-100.301l0.432-0.274z" />
<glyph unicode="&#xe927;" glyph-name="phone" d="M942.080 287.846c-0.297-0.001-0.65-0.001-1.003-0.001-64.927 0-127.369 10.643-185.675 30.28l4.099-1.198c-7.659 2.56-16.478 4.037-25.642 4.037-21.352 0-40.831-8.019-55.591-21.209l0.081 0.071-115.149-87.040c-124.618 62.877-223.401 161.594-284.693 282.528l-1.668 3.629 84.378 112.128c15.072 14.997 24.4 35.755 24.4 58.692 0 8.993-1.434 17.651-4.086 25.759l0.166-0.585c-18.568 54.431-29.287 117.136-29.287 182.345 0 0.281 0 0.561 0.001 0.841v-0.044c-0.203 45.251-36.905 81.862-82.17 81.92h-188.32c-45.161-0.203-81.717-36.758-81.92-81.901v-0.019c0.467-520.11 421.972-941.614 942.036-942.080h0.044c45.161 0.203 81.717 36.758 81.92 81.901v187.769c-0.058 45.271-36.669 81.973-81.901 82.176h-0.019z" />
<glyph unicode="&#xe928;" glyph-name="bookmark-check" horiz-adv-x="1358" d="M1258.955 872.874c26.302-26.259 42.573-62.559 42.573-102.659s-16.271-76.399-42.571-102.657l-644.521-644.521c-26.219-26.388-62.532-42.721-102.659-42.721s-76.439 16.333-102.651 42.714l-322.357 322.357c-26.273 26.273-42.523 62.568-42.523 102.659 0 80.182 65 145.182 145.182 145.182 40.091 0 76.386-16.25 102.659-42.523l219.869-219.69 542.039 542.039c26.203 26.206 62.404 42.416 102.391 42.416 40.076 0 76.349-16.281 102.565-42.59l0.004-0.004z" />
<glyph unicode="&#xe929;" glyph-name="delete" d="M883.712 726.733h-147.149c-37.171 0-38.758 4.71-48.998 35.277l-8.346 25.088c-12.614 37.225-47.24 63.539-88.011 63.539-0.037 0-0.074 0-0.11 0h-158.714c-0.031 0-0.068 0-0.104 0-40.771 0-75.396-26.314-87.818-62.886l-0.193-0.653-8.346-25.088c-10.24-30.72-11.827-35.277-48.998-35.277h-146.995c-17.108 0-30.976-13.868-30.976-30.976s13.868-30.976 30.976-30.976v0h53.914l31.693-474.88c-0.019-0.86-0.029-1.873-0.029-2.89 0-78.553 63.68-142.234 142.234-142.234 4.336 0 8.627 0.194 12.864 0.574l-0.547-0.040h263.731c3.69-0.34 7.981-0.534 12.317-0.534 78.553 0 142.234 63.68 142.234 142.234 0 1.016-0.011 2.030-0.032 3.041l0.003-0.151 31.693 474.88h53.606c17.108 0 30.976 13.868 30.976 30.976s-13.868 30.976-30.976 30.976v0zM403.405 767.693c4.136 12.409 15.645 21.197 29.207 21.197 0.046 0 0.092 0 0.138 0h158.713c0.054 0 0.118 0.001 0.182 0.001 13.562 0 25.071-8.788 29.144-20.981l0.063-0.217 8.397-25.088c1.792-5.427 3.635-10.65 5.632-15.718h-245.248c1.997 5.12 3.84 10.24 5.632 15.718zM736.614 194.253c0.145-1.82 0.227-3.941 0.227-6.080 0-45.017-36.493-81.51-81.51-81.51-4.036 0-8.003 0.293-11.881 0.86l0.441-0.053h-263.731c-3.437-0.514-7.404-0.807-11.44-0.807-45.017 0-81.51 36.493-81.51 81.51 0 2.14 0.082 4.26 0.244 6.359l-0.017-0.278-31.386 470.733h31.283c5.12 0 9.421 0.512 14.080 0.87 1.166-0.359 2.57-0.663 4.008-0.855l0.139-0.015h412.979c1.578 0.207 2.981 0.512 4.34 0.92l-0.192-0.050c4.659-0.307 8.909-0.87 14.080-0.87h31.283zM625.613 489.472v-206.49c0-17.108-13.868-30.976-30.976-30.976s-30.976 13.868-30.976 30.976v0 206.49c0 17.108 13.868 30.976 30.976 30.976s30.976-13.868 30.976-30.976v0zM460.442 489.472v-206.49c0-17.108-13.868-30.976-30.976-30.976s-30.976 13.868-30.976 30.976v0 206.49c0 17.108 13.868 30.976 30.976 30.976s30.976-13.868 30.976-30.976v0z" />
<glyph unicode="&#xe92a;" glyph-name="plus" d="M949.286 383.058h-874.46c-25.91 0-46.794 29.037-46.794 64.886s20.996 64.886 46.794 64.886h874.46c25.91 0 46.794-29.037 46.794-64.886s-20.996-64.886-46.794-64.886zM949.286 355.138h-874.46c-43.087 9.628-74.811 47.54-74.811 92.862s31.724 83.235 74.177 92.743l0.634 0.119h874.46c43.087-9.628 74.811-47.54 74.811-92.862s-31.724-83.235-74.177-92.743l-0.634-0.119zM74.826 485.022c-7.483 0-18.874-14.742-18.874-36.966s11.168-36.966 18.874-36.966h874.46c7.483 0 18.874 14.742 18.874 36.966s-11.168 36.966-18.874 36.966zM446.946 10.826v874.46c0 25.798 29.372 46.794 64.998 46.794s64.886-20.996 64.886-46.794v-874.46c0-25.91-29.037-46.794-64.886-46.794s-64.998 20.884-64.998 46.794zM419.026 10.826v874.46c4.753 42.481 40.467 75.206 83.825 75.206 3.203 0 6.365-0.179 9.476-0.526l-0.382 0.035c2.695 0.306 5.819 0.48 8.983 0.48 43.354 0 79.065-32.719 83.789-74.811l0.035-0.383v-874.46c-4.759-42.475-40.47-75.194-83.824-75.194-3.164 0-6.288 0.174-9.362 0.514l0.379-0.034c-2.728-0.313-5.89-0.492-9.093-0.492-43.358 0-79.072 32.725-83.79 74.823l-0.035 0.383zM548.91 885.286c0 7.483-14.742 18.874-36.966 18.874s-36.966-11.168-36.966-18.874v-874.46c0-7.483 14.742-18.874 36.966-18.874s36.966 11.28 36.966 18.874z" />
<glyph unicode="&#xe92b;" glyph-name="three-dot" horiz-adv-x="207" d="M103.757 753.237c-0.103 0-0.225-0.001-0.346-0.001-57.112 0-103.411 46.299-103.411 103.411 0 56.991 46.101 103.214 103.046 103.41h0.712c57.112 0 103.41-46.298 103.41-103.41s-46.298-103.41-103.41-103.41v0zM207.11 448.029c0 0.034 0 0.075 0 0.115 0 57.048-46.247 103.295-103.295 103.295-0.020 0-0.041 0-0.061 0h-0.632c-56.831-0.328-102.775-46.474-102.775-103.351 0-57.080 46.273-103.353 103.353-103.353s103.352 46.272 103.353 103.351v0zM207.11 39.41c0 0.034 0 0.075 0 0.115 0 57.048-46.247 103.295-103.295 103.295-0.020 0-0.041 0-0.061 0h-0.632c-56.831-0.328-102.775-46.474-102.775-103.351 0-57.080 46.273-103.353 103.353-103.353s103.352 46.272 103.353 103.351v0z" />
<glyph unicode="&#xe92c;" glyph-name="bell" horiz-adv-x="919" d="M459.435-64c-0.142-0.001-0.311-0.001-0.48-0.001-52.942 0-99.183 28.687-124.028 71.365l-0.367 0.684c-3.364 5.689-5.352 12.537-5.352 19.85 0 21.807 17.678 39.485 39.485 39.485 14.495 0 27.165-7.81 34.033-19.451l0.101-0.184c12.217-18.76 33.090-30.989 56.819-30.989s44.602 12.229 56.66 30.728l0.159 0.26c6.968 11.826 19.639 19.636 34.133 19.636 21.807 0 39.485-17.678 39.485-39.485 0-7.313-1.988-14.161-5.453-20.034l0.101 0.184c-25.212-43.362-71.454-72.050-124.397-72.050-0.316 0-0.632 0.001-0.947 0.003h0.049zM914.983 115.856c2.459 4.998 3.898 10.878 3.898 17.095 0 9.316-3.23 17.878-8.632 24.626l0.061-0.078c-55.48 73.022-90.907 164.001-96.616 262.948l-0.060 1.296v184.057c0 195.619-158.58 354.199-354.199 354.199s-354.199-158.58-354.199-354.199v0-184.057c-5.769-100.243-41.196-191.222-97.549-265.443l0.873 1.199c-5.329-6.666-8.552-15.218-8.552-24.524 0-21.741 17.593-39.373 39.319-39.437h840.211c15.526 0.020 28.945 9.021 35.343 22.086l0.103 0.232zM184.005 421.744v184.057c0 152.116 123.314 275.43 275.43 275.43s275.43-123.314 275.43-275.43v0-184.057c2.693-92.346 29.040-177.999 73.152-251.81l-1.315 2.374h-694.535c42.797 71.436 69.144 157.089 71.82 248.681l0.017 0.755z" />
<glyph unicode="&#xe92d;" glyph-name="arrow-up-left" d="M145.064-64l-145.064 145.178 848.829 848.829 145.178-145.178zM1024 8.532h-205.279v746.189h-746.189v205.279h848.829c56.686 0 102.639-45.953 102.639-102.639v0z" />
<glyph unicode="&#xe92e;" glyph-name="arrow-left" horiz-adv-x="1651" d="M1651.065 384.673h-1561.521v126.654h1561.521zM512-64l-512 512 512 512 89.545-89.545-422.455-422.455 422.455-422.455z" />
<glyph unicode="&#xe92f;" glyph-name="arrow-right" horiz-adv-x="1651" d="M-0.065 384.673h1561.521v126.654h-1561.521zM1139-64l512 512-512 512-89.545-89.545 422.455-422.455-422.455-422.455z" />
<glyph unicode="&#xe930;" glyph-name="fill-heart" horiz-adv-x="1170" d="M1056.709 890.017c-53.231 43.368-121.892 69.639-196.689 69.639-90.781 0-172.523-38.699-229.63-100.5l-0.192-0.21-44.997-46.402-45.056 46.402c-57.29 62.023-139.033 100.732-229.816 100.732-74.802 0-143.466-26.279-197.263-70.109l0.568 0.449c-69.776-60.522-113.646-149.319-113.646-248.362 0-88.053 34.675-168.007 91.115-226.952l-0.113 0.119 442.251-456.411c13.069-13.623 31.424-22.088 51.756-22.088s38.687 8.465 51.732 22.063l0.024 0.025 442.251 456.411c56.452 58.818 91.213 138.829 91.213 226.96 0 98.999-43.863 187.753-113.216 247.889l-0.408 0.346z" />
<glyph unicode="&#xe931;" glyph-name="outline-heart" horiz-adv-x="1159" d="M321.644 959.892c96.369-0.674 183.215-40.887 245.229-105.206l0.1-0.105 12.396-12.773 12.45 12.827c62.16 64.376 149.011 104.561 245.253 105.256l0.13 0.001c0.621 0.005 1.356 0.007 2.092 0.007 76.793 0 147.031-28.069 201.012-74.507l-0.406 0.341c69.461-59.219 114.414-145.403 118.545-242.158l0.023-0.691c0.258-4.967 0.404-10.784 0.404-16.635 0-92.092-36.369-175.69-95.528-237.214l0.107 0.112-407.336-420.379c-19.396-20.145-46.596-32.658-76.719-32.658s-57.323 12.513-76.687 32.624l-0.032 0.034-407.39 420.379c-58.995 61.424-95.325 145.003-95.325 237.067 0 5.939 0.151 11.843 0.45 17.708l-0.033-0.823c4.263 97.323 49.193 183.37 118.098 242.135l0.47 0.391c53.609 46.162 123.907 74.273 200.771 74.273 0.678 0 1.355-0.002 2.031-0.007l-0.104 0.001zM579.422 725.72l-70.494 72.488c-47.366 49.334-113.659 80.185-187.162 80.841l-0.122 0.001c-0.584 0.005-1.274 0.008-1.964 0.008-56.784 0-108.732-20.702-148.71-54.97l0.308 0.258c-52.841-45.19-87.010-110.883-90.095-184.611l-0.017-0.518c-0.208-3.903-0.327-8.472-0.327-13.069 0-70.122 27.623-133.792 72.582-180.722l-0.089 0.094 407.336-420.379c4.68-4.968 11.303-8.061 18.648-8.061s13.967 3.093 18.636 8.048l0.012 0.013 407.336 420.379c44.962 46.84 72.648 110.561 72.648 180.748 0 4.555-0.117 9.083-0.347 13.581l0.026-0.631c-3.103 74.256-37.294 139.955-89.812 184.833l-0.354 0.295c-39.662 34.009-91.604 54.711-148.381 54.711-0.66 0-1.319-0.003-1.978-0.008l0.101 0.001c-73.617-0.703-139.896-31.543-187.201-80.755l-0.083-0.087z" />
<glyph unicode="&#xe932;" glyph-name="search" d="M468.59 960c258.795 0 468.59-209.795 468.59-468.59s-209.795-468.59-468.59-468.59c-258.795 0-468.59 209.795-468.59 468.59v0c0.282 258.682 209.908 468.308 468.563 468.59h0.027zM468.59 134.347c197.234 0 357.124 159.89 357.124 357.124s-159.89 357.124-357.124 357.124c-197.234 0-357.124-159.89-357.124-357.124 0-0.022 0-0.043 0-0.065v0.003c0.246-197.122 159.997-356.851 357.104-357.062h0.020zM945.231-64l-224.48 224.48 78.831 78.831 224.48-224.48z" />
<glyph unicode="&#xe933;" glyph-name="up-arrow" horiz-adv-x="1766" d="M882.996 960c-38.923-0.035-74.148-15.836-99.641-41.36l-783.356-783.356 199.442-199.442 683.554 683.711 683.711-683.711 199.442 199.442-783.354 783.354c-25.523 25.554-60.799 41.361-99.767 41.361-0.011 0-0.023 0-0.034 0h0.002z" />
<glyph unicode="&#xe934;" glyph-name="minus" d="M87.499 342.926c-50.109 9.471-87.499 52.906-87.499 105.074s37.39 95.603 86.833 104.97l0.665 0.105h849.003c50.109-9.471 87.499-52.906 87.499-105.074s-37.39-95.603-86.833-104.97l-0.665-0.105z" />
<glyph unicode="&#xe935;" glyph-name="home" d="M749.568 61.952h-168.277v207.872c0 38.268-31.022 69.291-69.291 69.291s-69.291-31.022-69.291-69.291v0-207.872h-168.277c-4.635-0.569-10.001-0.893-15.443-0.893-73.968 0-133.931 59.963-133.931 133.931 0 5.442 0.325 10.808 0.955 16.079l-0.062-0.637v251.435c-0.857 5.922-1.346 12.761-1.346 19.713 0 49.193 24.486 92.668 61.935 118.9l0.466 0.31 242.304 203.136c22.178 18.739 51.092 30.13 82.667 30.13s60.489-11.391 82.857-30.287l-0.19 0.157 242.304-203.136c37.916-26.542 62.402-70.016 62.402-119.209 0-6.953-0.489-13.791-1.435-20.483l0.089 0.77v-251.435c0.568-4.634 0.893-9.998 0.893-15.438 0-73.968-59.963-133.931-133.931-133.931-5.426 0-10.777 0.323-16.035 0.95l0.635-0.062zM640.683 121.344h108.885c62.464 0 89.088 26.667 89.088 89.088v251.435c0 60.373-9.984 68.651-39.552 93.227l-242.56 203.349c-11.955 10.085-27.534 16.215-44.544 16.215s-32.589-6.129-44.648-16.3l0.104 0.085-242.56-203.349c-29.568-24.576-39.552-32.853-39.552-93.227v-251.435c0-62.421 26.667-89.088 89.088-89.088h108.885v148.48c0 71.069 57.613 128.683 128.683 128.683s128.683-57.613 128.683-128.683v0z" />
<glyph unicode="&#xe936;" glyph-name="dollar" horiz-adv-x="586" d="M338.069 511.984v227.528c51.163-8.84 96.421-29.346 134.51-58.699l-0.709 0.525c7.418-5.15 16.583-8.273 26.471-8.4h0.032c0.005 0 0.010 0 0.016 0 30.471 0 55.215 24.522 55.573 54.909v0.034c0 0.073 0.001 0.158 0.001 0.244 0 13.511-5.43 25.754-14.226 34.665l0.005-0.005c-54.422 46.814-124.474 76.847-201.382 81.399l-0.933 0.044v76.275c0 0.003 0 0.006 0 0.010 0 21.771-17.649 39.42-39.42 39.42-0.004 0-0.008 0-0.013 0h0.001c-0.348 0.045-0.751 0.070-1.16 0.070-0.069 0-0.139-0.001-0.208-0.002h0.010c-0.175 0.003-0.381 0.004-0.588 0.004-21.93 0-39.746-17.615-40.070-39.468v-73.723c-145.437-10.342-244.334-100.201-244.334-219.772 0-146.729 124.753-187.453 244.334-219.772v-258.556c-66.036 9.058-124.508 36.13-171.794 76.038l0.501-0.412c-8.807 7.031-20.032 11.372-32.262 11.633l-0.058 0.001c-29.348-2.093-52.364-26.416-52.364-56.114 0-0.27 0.002-0.54 0.006-0.809v0.041c0-0.071-0.001-0.156-0.001-0.24 0-13.51 5.429-25.752 14.224-34.663l-0.005 0.005c64.183-57.977 148.75-94.468 241.775-97.584l0.627-0.017v-71.103c0-0.452 0.064-0.906 0.064-1.358 1.031-21.268 18.525-38.122 39.956-38.122 0.701 0 1.399 0.018 2.091 0.054l-0.097-0.004c0.003 0 0.006 0 0.010 0 21.771 0 39.42 17.649 39.42 39.42 0 0.004 0 0.007 0 0.011v-0.001 72.401c176.459 11.618 247.558 118.919 247.558 232.684 0 152.549-127.979 199.090-247.562 231.402zM256.624 532.669c-70.457 20.684-125.401 42.014-125.401 102.129s49.772 103.423 125.401 109.239zM338.069 147.422v235.284c73.043-20.684 129.923-48.478 129.277-116.349 0-49.126-33.612-107.301-129.277-118.935z" />
<glyph unicode="&#xe937;" glyph-name="chat" horiz-adv-x="1152" d="M480 960v0c265.096 0 480-173.914 480-388.448s-214.904-388.448-480-388.448c-25.458 0-50.446 1.62-74.834 4.71-103.106-102.694-222.172-121.108-341.166-123.814v25.134c64.252 31.354 116 88.466 116 153.734 0 9.106-0.712 18.048-2.030 26.794-108.558 71.214-177.97 179.988-177.97 301.89 0 214.534 214.904 388.448 480 388.448zM996 89.314c0-55.942 36.314-104.898 92-131.772v-21.542c-103.126 2.318-197.786 18.102-287.142 106.126-21.14-2.65-42.794-4.040-64.858-4.040-95.47 0-183.408 25.758-253.614 69.040 144.674 0.506 281.26 46.854 384.834 130.672 52.208 42.252 93.394 91.826 122.414 147.348 30.766 58.866 46.366 121.582 46.366 186.406 0 10.448-0.45 20.836-1.258 31.168 72.57-59.934 117.258-141.622 117.258-231.676 0-104.488-60.158-197.722-154.24-258.764-1.142-7.496-1.76-15.16-1.76-22.966z" />
<glyph unicode="&#xe938;" glyph-name="filter_list" d="M256 384.667v84h512v-84h-512zM128 682.667h768v-86h-768v86zM426 170.667v86h172v-86h-172z" />
<glyph unicode="&#xe939;" glyph-name="boat-owner" d="M699.264-7.552c-6.048 4.653-11.422 9.404-16.455 14.492l-0.014 0.014c-17.948-2.244-34.123-8.303-48.202-17.342l0.458 0.275c-22.898-14.403-50.742-22.948-80.582-22.948-1.16 0-2.318 0.013-3.472 0.039l0.172-0.003h-3.797c-1.037-0.025-2.259-0.040-3.485-0.040-29.732 0-57.491 8.447-81.007 23.073l0.652-0.378c-17.427 11.294-38.734 18.009-61.609 18.009-0.301 0-0.601-0.001-0.901-0.003h-2.727c-20.124 0-38.865-5.919-54.578-16.11l0.391 0.238-0.64-0.384c-25.759-15.178-56.75-24.144-89.835-24.144s-64.076 8.966-90.676 24.601l0.841-0.457-0.555 0.384c-10.985 6.591-18.223 18.437-18.223 31.974 0 3.268 0.422 6.438 1.214 9.458l-0.058-0.259c3.451 12.394 14.638 21.336 27.914 21.336 0.146 0 0.293-0.001 0.439-0.003h-0.022c8.079-0.166 15.551-2.626 21.831-6.752l-0.156 0.096c10.319-6.698 22.429-11.666 35.42-14.15l0.633-0.101-100.267 317.355c-2.53 7.337-3.991 15.792-3.991 24.588 0 31.347 18.554 58.36 45.278 70.658l0.483 0.199 56.405 25.6v175.275c0.624 47.663 39.314 86.084 87.022 86.272h2.749v37.76c0.146 43.083 35.104 77.952 78.208 77.952 0 0 0 0 0 0h290.133c42.984-0.169 77.783-34.969 77.952-77.936v-37.776h2.901c47.699-0.186 86.383-38.525 87.124-86.074l0.001-0.070v-169.301l67.627-30.208c27.476-12.441 46.246-39.621 46.246-71.185 0-9.419-1.672-18.448-4.734-26.806l0.173 0.541-41.387-119.467 3.755-4.523c22.576-27.972 36.246-63.95 36.267-103.121v-0.004c-0.299-53.109-25.579-100.253-64.677-130.315l-0.39-0.288c-27.325-21.233-62.099-34.065-99.867-34.133h-0.016c-37.806 0.063-72.607 12.877-100.344 34.371l0.376-0.28zM742.827 41.813c-7.14-6.665-11.821-15.884-12.579-26.194l-0.008-0.131c19.463-12.786 43.32-20.395 68.954-20.395 0.058 0 0.117 0 0.175 0h-0.009c0.049 0 0.108 0 0.166 0 25.634 0 49.491 7.609 69.435 20.691l-0.481-0.296c-0.707 10.454-5.402 19.692-12.56 26.301l-0.027 0.024c-7.014 6.632-16.504 10.71-26.946 10.71-0.052 0-0.104 0-0.155 0h0.008c-0.561 0.030-1.217 0.047-1.877 0.047s-1.317-0.017-1.969-0.051l0.091 0.004h-51.413c-1.152 0-2.389 0-3.584 0-0.032 0-0.069 0-0.107 0-10.496 0-20.040-4.075-27.136-10.729l0.022 0.020zM487.083 49.621c17.574-11.257 39.014-17.944 62.016-17.944s44.442 6.687 62.482 18.223l-0.466-0.279c9.804 6.086 21.102 11.352 33.030 15.221l1.104 0.31c-1.995 4.999-4.012 11.289-5.646 17.731l-0.242 1.128c-3.015 11.774-4.745 25.291-4.745 39.213 0 25.263 5.699 49.196 15.881 70.582l-0.426-0.994c26.951 56.602 83.636 95.054 149.315 95.189h0.018c12.685-0.034 25.021-1.447 36.891-4.096l-1.137 0.213c13.304-3.036 24.977-7.202 35.969-12.549l-0.983 0.431 11.989 34.773-302.123 131.584v-195.157c-0.024-17.805-14.451-32.232-32.254-32.256h-0.002c-0.013 0-0.028 0-0.043 0-17.823 0-32.274 14.436-32.299 32.254v193.282l-300.715-133.248 82.944-262.827c5.523 2.517 10.029 4.909 14.383 7.528l-0.645-0.36c24.785 15.473 54.882 24.652 87.123 24.661h8.024c0.045 0 0.099 0 0.153 0 29.737 0 57.508-8.415 81.062-22.994l-0.661 0.381zM898.987 42.965c17.6 21.743 28.255 49.736 28.255 80.219 0 23.753-6.47 45.995-17.743 65.059l0.325-0.595c-22.595 38.217-63.579 63.454-110.459 63.488h-0.005c-11.919-0.001-23.452-1.652-34.383-4.737l0.89 0.215c-54.802-15.296-94.336-64.778-94.336-123.494 0-0.084 0-0.168 0-0.252v0.013-3.541c0.748-29.186 11.264-55.778 28.384-76.773l-0.181 0.229c11.526 27.424 38.12 46.353 69.149 46.464h0.014c0.282 0.007 0.614 0.011 0.948 0.011 1.666 0 3.308-0.097 4.923-0.285l-0.196 0.019h49.579c1.419 0.17 3.061 0.267 4.727 0.267 0.333 0 0.666-0.004 0.997-0.012l-0.049 0.001c31.006-0.080 57.587-18.94 68.977-45.801l0.185-0.492zM200.576 387.371c-4.753-2.102-8.010-6.776-8.010-12.211 0-1.54 0.261-3.019 0.743-4.395l-0.028 0.093v-0.384l1.749-5.291 320.384 142.037v21.333c-56.661-22.443-219.264-96.725-314.837-141.184zM580.011 508.885l323.243-140.8 1.152 3.413c0.531 1.398 0.838 3.014 0.838 4.702 0 5.453-3.207 10.157-7.837 12.329l-0.083 0.035c-114.347 50.517-262.4 115.2-317.312 138.411zM317.227 668.672c-12.18-0.067-22.068-9.79-22.399-21.9l-0.001-0.031v-145.835l189.995 86.016c18.568 8.592 40.297 13.603 63.197 13.603 22.68 0 44.212-4.916 63.589-13.739l-0.962 0.392 180.821-80.725v140.288c-0.375 12.148-10.222 21.876-22.382 22.058h-451.858zM384.981 771.072v-37.76h316.715v37.76c-0.095 7.408-6.075 13.388-13.474 13.483h-289.886c-7.327-0.167-13.205-6.135-13.227-13.481v-0.002zM799.659 89.941c-34.424 0.072-62.319 27.922-62.464 62.322v0.014c0.024 34.417 27.919 62.312 62.334 62.336h0.002c34.417-0.024 62.312-27.919 62.336-62.334v-0.002c-0.048-34.318-27.782-62.143-62.062-62.336h-0.018zM781.525 170.411c-4.568-4.677-7.395-11.072-7.424-18.128v-0.006c0-14.138 11.462-25.6 25.6-25.6v0c14.138 0 25.6 11.462 25.6 25.6v0c0 14.138-11.462 25.6-25.6 25.6v0c-0.075 0.001-0.164 0.001-0.253 0.001-7.021 0-13.375-2.855-17.965-7.467l-0.001-0.001z" />
<glyph unicode="&#xe93a;" glyph-name="renter" d="M640 75.093c-17.92-2.208-34.074-8.271-48.106-17.337l0.447 0.27c-22.612-14.279-50.129-22.753-79.624-22.753-1.422 0-2.84 0.020-4.253 0.059l0.208-0.005h-3.669c-1.22-0.035-2.655-0.055-4.094-0.055-29.65 0-57.321 8.472-80.725 23.126l0.638-0.373c-17.475 11.191-38.792 17.838-61.663 17.838-0.297 0-0.593-0.001-0.889-0.003h-2.599c-0.042 0-0.091 0-0.14 0-19.981 0-38.567-5.972-54.071-16.227l0.365 0.227-0.853-0.384c-25.74-15.251-56.735-24.264-89.835-24.264s-64.095 9.013-90.664 24.718l0.83-0.454-0.341 0.384c-11.21 6.54-18.623 18.508-18.623 32.208 0 3.23 0.412 6.364 1.187 9.352l-0.057-0.258c3.481 12.401 14.687 21.342 27.981 21.342 0.243 0 0.485-0.003 0.727-0.009l-0.036 0.001c7.962-0.285 15.297-2.744 21.494-6.797l-0.16 0.098c10.329-6.815 22.509-11.775 35.604-14.081l0.577-0.084-100.48 317.355c-2.493 7.312-3.933 15.735-3.933 24.495 0 31.381 18.473 58.448 45.138 70.92l0.48 0.202 56.491 25.301v175.232c0.768 47.777 39.634 86.224 87.501 86.315h2.697v37.931c0 0.025 0 0.056 0 0.086 0 42.91 34.786 77.696 77.696 77.696 0.105 0 0.21 0 0.315-0.001h290.117c42.863-0.169 77.557-34.908 77.653-77.772v-37.94h2.987c47.665-0.020 86.372-38.352 86.997-85.872l0.001-0.059v-169.301l67.84-30.507c27.451-12.361 46.217-39.478 46.217-70.978 0-9.371-1.661-18.354-4.704-26.671l0.173 0.539-35.157-101.333c30.894-31.194 49.987-74.123 50.005-121.511v-0.003c-0.087-47.987-19.645-91.39-51.191-122.743l-0.009-0.009c-31.095-31.259-74.139-50.604-121.702-50.604-0.219 0-0.438 0-0.657 0.001h0.034c-48.698 0.126-92.665 20.278-124.12 52.652l-0.040 0.041zM627.2 195.755c0-0.038 0-0.083 0-0.128 0-75.735 61.395-137.131 137.131-137.131 0.075 0 0.15 0 0.225 0h-0.011c75.613 0.267 136.808 61.612 136.832 137.257v0.002c0 0 0 0.001 0 0.001 0 75.664-61.205 137.034-136.807 137.3h-0.025c-75.828-0.024-137.295-61.476-137.344-137.297v-0.005zM444.544 117.632c17.545-11.185 38.93-17.827 61.867-17.827s44.322 6.642 62.338 18.107l-0.472-0.28c9.804 6.109 21.1 11.403 33.027 15.303l1.107 0.313c-7.479 18.434-11.819 39.816-11.819 62.212 0 0.104 0 0.207 0 0.311v-0.016c0.315 95.779 78.008 173.307 173.819 173.355h0.005c0.069 0 0.152 0 0.234 0 25.207 0 49.14-5.452 70.685-15.242l-1.073 0.436 5.333 20.779-302.165 131.712v-195.328c-0.024-17.852-14.489-32.317-32.339-32.341h-0.002c-17.852 0.024-32.317 14.489-32.341 32.339v193.495l-300.672-133.547 82.987-262.656c5.338 2.465 9.716 4.827 13.941 7.417l-0.586-0.334c24.367 15.428 54.031 24.585 85.835 24.585 0.589 0 1.177-0.003 1.764-0.009l-0.090 0.001h8.533c0.026 0 0.057 0 0.089 0 29.609 0 57.237-8.484 80.585-23.154l-0.631 0.37zM158.037 455.808c-4.871-2.105-8.218-6.868-8.218-12.412 0-1.544 0.259-3.027 0.737-4.408l-0.028 0.095v-0.384l2.005-5.205 320.341 142.123v21.333c-56.704-22.443-219.221-96.853-315.008-141.141zM537.557 577.109l322.987-140.8 0.981 3.371c0.553 1.419 0.873 3.062 0.873 4.78 0 5.419-3.186 10.093-7.787 12.251l-0.083 0.035c-114.176 50.219-262.315 114.944-317.013 138.027zM252.245 715.136v-145.835l189.653 85.973c18.657 8.571 40.478 13.568 63.466 13.568 22.693 0 44.248-4.87 63.679-13.621l-0.98 0.395 180.821-80.725v140.288c-0.485 12.045-10.234 21.661-22.289 21.93h-451.695c-12.233-0.15-22.161-9.811-22.739-21.921l-0.002-0.052zM342.229 839.381v-37.931h317.013v37.931c-0.282 7.432-6.355 13.355-13.82 13.397h-289.839c-7.361-0.095-13.302-6.037-13.397-13.388v-0.009zM745.899 117.973v1.109c-18.193 5.177-31.674 20.668-33.815 39.595l-0.020 0.213c-0.179 0.928-0.281 1.995-0.281 3.086 0 5.761 2.854 10.855 7.225 13.945l0.053 0.036c2.883 2.301 6.58 3.693 10.602 3.693 2.826 0 5.492-0.687 7.839-1.903l-0.095 0.045c5.893-2.572 10.004-8.215 10.324-14.852l0.001-0.039c0.784-5.4 5.305-9.525 10.821-9.685h11.195c5.575 0.048 10.159 4.232 10.832 9.632l0.005 0.054c0.079 0.484 0.124 1.043 0.124 1.612 0 5.018-3.507 9.216-8.203 10.279l-0.071 0.013-25.003 6.315c-20.493 5.335-35.376 23.673-35.376 45.488 0 0.748 0.018 1.493 0.052 2.233l-0.004-0.105c0.595 20.566 14.578 37.71 33.51 43.058l0.325 0.078v1.109c0.024 10.067 8.191 18.219 18.261 18.219 0.030 0 0.060 0 0.090 0h-0.005c9.89-0.192 17.835-8.254 17.835-18.173 0-0.016 0-0.032 0-0.048v0.002-0.768c18.458-5.179 32.178-20.793 34.495-39.922l0.022-0.227c0.114-0.767 0.18-1.653 0.18-2.554 0-5.897-2.796-11.142-7.134-14.481l-0.043-0.032c-3.016-2.127-6.767-3.4-10.815-3.4-2.724 0-5.313 0.576-7.652 1.613l0.121-0.048c-5.795 2.695-9.843 8.269-10.322 14.833l-0.003 0.058c-0.82 5.571-5.474 9.828-11.159 10.026l-0.020 0.001h-10.837c-6.084-0.183-10.972-5.056-11.178-11.117l-0.001-0.019c0.146-2.527 1.003-4.828 2.373-6.737l-0.026 0.038c1.639-1.947 3.776-3.424 6.217-4.238l0.098-0.028 27.179-6.699 8.533-1.835-1.152-1.109c15.573-8.066 26.032-24.059 26.032-42.495 0-0.751-0.017-1.497-0.052-2.239l0.004 0.105c-0.993-20.6-15.321-37.595-34.494-42.595l-0.322-0.071v-1.109c0-9.85-7.985-17.835-17.835-17.835v0c-0.165-0.005-0.36-0.009-0.555-0.009-9.909 0-17.943 8.023-17.963 17.927v0.002z" />
<glyph unicode="&#xe93b;" glyph-name="menu" horiz-adv-x="1523" d="M145.993 670.523h-145.993v99.046h145.993c23.679 109.59 119.792 190.506 234.804 190.506s211.125-80.915 234.517-188.925l0.287-1.581h907.786v-99.046h-907.786c-23.679-109.59-119.792-190.506-234.804-190.506s-211.125 80.915-234.517 188.925l-0.287 1.581zM239.889 720.045c0-77.822 63.087-140.909 140.909-140.909s140.909 63.087 140.909 140.909c0 77.822-63.087 140.909-140.909 140.909-0.023 0-0.046 0-0.070 0h0.003c-77.792-0.075-140.834-63.117-140.909-140.902v-0.007zM907.654 126.432h-907.654v99.046h907.654c23.679 109.59 119.792 190.506 234.804 190.506s211.125-80.915 234.517-188.925l0.287-1.581h146.125v-99.046h-146.125c-23.679-109.59-119.792-190.506-234.804-190.506s-211.125 80.915-234.517 188.925l-0.287 1.581zM1001.55 175.955c0-77.822 63.087-140.909 140.909-140.909s140.909 63.087 140.909 140.909c0 77.822-63.087 140.909-140.909 140.909-0.046 0-0.093 0-0.139 0h0.007c-77.735-0.15-140.702-63.164-140.777-140.902v-0.007z" />
<glyph unicode="&#xe93c;" glyph-name="edit-icon" d="M740.431 767.882l165.415-165.415c3.24-3.248 5.243-7.731 5.243-12.682s-2.003-9.434-5.243-12.682v0l-401.723-401.881-170.614-18.905c-1.149-0.131-2.48-0.206-3.829-0.206-19.75 0-35.761 16.011-35.761 35.761 0 1.349 0.075 2.68 0.22 3.99l-0.015-0.161 18.905 170.614 401.723 401.723c3.256 3.288 7.772 5.324 12.762 5.324 5.068 0 9.646-2.099 12.912-5.476l0.005-0.005zM1038.257 809.945l-90.112 89.718c-13.002 12.94-30.93 20.939-50.727 20.939s-37.726-7.999-50.73-20.942l0.003 0.003-65.063-65.142c-3.24-3.248-5.243-7.731-5.243-12.682s2.003-9.434 5.243-12.682v0l165.415-165.415c3.248-3.24 7.731-5.243 12.682-5.243s9.434 2.003 12.682 5.243v0l65.063 65.063c12.94 13.002 20.939 30.93 20.939 50.727s-7.999 37.726-20.942 50.73l0.003-0.003zM705.851 284.396v-187.156h-588.17v588.249h422.361c6.137 0.019 11.696 2.48 15.758 6.463l73.488 73.488c3.992 3.991 6.461 9.506 6.461 15.597 0 12.181-9.875 22.055-22.055 22.055-0.056 0-0.112 0-0.168-0.001h-525.303c-48.696 0-88.177-39.453-88.222-88.139v-647.093c0-48.723 39.498-88.222 88.222-88.222v0h647.089c48.723 0 88.222 39.498 88.222 88.222v290.107c-0.017 12.212-9.92 22.104-22.134 22.104-6.046 0-11.526-2.424-15.521-6.353l-73.489-73.489c-4.025-4.067-6.518-9.657-6.538-15.829v-0.004z" />
<glyph unicode="&#xe93d;" glyph-name="camera" d="M1024 128v469.333c0 35.328-14.379 67.413-37.504 90.496s-55.168 37.504-90.496 37.504h-147.84l-72.661 109.013c-7.765 11.52-20.736 18.987-35.499 18.987h-256c-13.909-0.085-27.307-6.741-35.499-18.987l-72.661-109.013h-147.84c-35.328 0-67.413-14.379-90.496-37.504s-37.504-55.168-37.504-90.496v-469.333c0-35.328 14.379-67.413 37.504-90.496s55.168-37.504 90.496-37.504h768c35.328 0 67.413 14.379 90.496 37.504s37.504 55.168 37.504 90.496zM938.667 128c0-11.776-4.736-22.4-12.501-30.165s-18.389-12.501-30.165-12.501h-768c-11.776 0-22.4 4.736-30.165 12.501s-12.501 18.389-12.501 30.165v469.333c0 11.776 4.736 22.4 12.501 30.165s18.389 12.501 30.165 12.501h170.667c14.763 0 27.733 7.467 35.499 18.987l72.661 109.013h210.347l72.661-109.013c8.192-12.245 21.589-18.901 35.499-18.987h170.667c11.776 0 22.4-4.736 30.165-12.501s12.501-18.389 12.501-30.165zM725.333 384c0 58.88-23.936 112.299-62.464 150.869s-91.989 62.464-150.869 62.464-112.299-23.936-150.869-62.464-62.464-91.989-62.464-150.869 23.936-112.299 62.464-150.869 91.989-62.464 150.869-62.464 112.299 23.936 150.869 62.464 62.464 91.989 62.464 150.869zM640 384c0-35.371-14.293-67.285-37.504-90.496s-55.125-37.504-90.496-37.504-67.285 14.293-90.496 37.504-37.504 55.125-37.504 90.496 14.293 67.285 37.504 90.496 55.125 37.504 90.496 37.504 67.285-14.293 90.496-37.504 37.504-55.125 37.504-90.496z" />
<glyph unicode="&#xe93e;" glyph-name="half-rate" horiz-adv-x="514" d="M245.079-64c-19.934 0.193-37.721 9.228-49.651 23.365l-0.081 0.098c-9.195 10.796-14.789 24.905-14.789 40.32 0 4.029 0.382 7.969 1.112 11.785l-0.062-0.39 49.974 292.198-212.231 206.716c-11.962 11.664-19.382 27.938-19.382 45.945 0 32.179 23.694 58.824 54.587 63.441l0.352 0.043 293.408 43.056 131.247 265.833c7.075 14.523 19.142 25.696 33.919 31.444l0.429 0.147v-890.818l-239.128-125.781c-8.603-4.659-18.833-7.399-29.703-7.402h-0.001z" />
<glyph unicode="&#xe93f;" glyph-name="star" horiz-adv-x="1070" d="M477.581 924.347l-130.598-264.767-292.237-42.602c-31.093-4.74-54.639-31.29-54.639-63.34 0-17.957 7.392-34.187 19.298-45.815l0.013-0.012 211.385-205.995-50.005-290.939c-0.582-3.241-0.915-6.972-0.915-10.78 0-35.328 28.639-63.968 63.968-63.968 10.879 0 21.124 2.716 30.093 7.506l-0.344-0.168 261.39 137.352 261.13-137.352c8.605-4.59 18.819-7.285 29.663-7.285 35.364 0 64.032 28.668 64.032 64.032 0 3.766-0.325 7.457-0.949 11.044l0.055-0.382-50.005 290.939 211.385 205.995c11.914 11.639 19.302 27.866 19.302 45.819 0 32.070-23.576 58.633-54.341 63.304l-0.355 0.044-292.237 42.602-130.338 264.767c-10.709 21.269-32.368 35.604-57.376 35.604s-46.667-14.336-57.208-35.237l-0.168-0.367z" />
</font>
</defs>
</svg>
