<svg xmlns="http://www.w3.org/2000/svg" width="36" height="36" viewBox="0 0 36 36">
  <g id="calendar" transform="translate(-3172 -2092)">
    <rect id="Frame" width="36" height="36" transform="translate(3172 2092)" fill="#25aae1" opacity="0"/>
    <path id="Path_7383" data-name="Path 7383" d="M3175,2114.5q0,4.5,4.5,4.5h18q4.5,0,4.5-4.5V2101h-27Z" transform="translate(1.5 4.5)" fill="#25aae1" opacity="0.4"/>
    <path id="Path_7384" data-name="Path 7384" d="M3197.5,2097.625h-1.875v-2.25a1.125,1.125,0,0,0-2.25,0v2.25h-9.75v-2.25a1.125,1.125,0,0,0-2.25,0v2.25H3179.5q-4.5,0-4.5,4.5v2.25h27v-2.25Q3202,2097.625,3197.5,2097.625Z" transform="translate(1.5 1.125)" fill="#25aae1"/>
    <path id="Path_7385" data-name="Path 7385" d="M3180.523,2107a1.5,1.5,0,1,1-.015-3h.015a1.5,1.5,0,0,1,0,3Zm7.5-1.5a1.5,1.5,0,0,0-1.5-1.5h-.015a1.5,1.5,0,1,0,1.515,1.5Zm6,0a1.5,1.5,0,0,0-1.5-1.5h-.015a1.5,1.5,0,1,0,1.515,1.5Zm-12,6a1.5,1.5,0,0,0-1.5-1.5h-.015a1.5,1.5,0,1,0,1.515,1.5Zm6,0a1.5,1.5,0,0,0-1.5-1.5h-.015a1.5,1.5,0,1,0,1.515,1.5Zm6,0a1.5,1.5,0,0,0-1.5-1.5h-.015a1.5,1.5,0,1,0,1.515,1.5Z" transform="translate(3.507 6)" fill="#25aae1"/>
  </g>
</svg>
