<svg xmlns="http://www.w3.org/2000/svg" width="36" height="36" viewBox="0 0 36 36">
  <g id="ic_date" transform="translate(4052 2995)">
    <rect id="Rectangle_14448" data-name="Rectangle 14448" width="36" height="36" transform="translate(-4052 -2995)" fill="none"/>
    <g id="Group_191855" data-name="Group 191855" transform="translate(-4047 -2990)">
      <path id="Path_183806" data-name="Path 183806" d="M347.582,6.328A1.582,1.582,0,0,1,346,4.746V1.582a1.582,1.582,0,0,1,3.164,0V4.746A1.582,1.582,0,0,1,347.582,6.328Z" transform="translate(-327.754)" fill="#25aae1"/>
      <path id="Path_183809" data-name="Path 183809" d="M347.582,6.328A1.582,1.582,0,0,1,346,4.746V1.582a1.582,1.582,0,0,1,3.164,0V4.746A1.582,1.582,0,0,1,347.582,6.328Z" transform="translate(-340.5)" fill="#25aae1"/>
      <path id="Path_183807" data-name="Path 183807" d="M24.1,60H22.992v1.582a3.164,3.164,0,0,1-6.328,0V60H10.336v1.582a3.164,3.164,0,0,1-6.328,0V60H2.9A2.9,2.9,0,0,0,0,62.9v3.533H27V62.9A2.9,2.9,0,0,0,24.1,60Z" transform="translate(0 -56.836)" fill="#25aae1"/>
      <path id="Path_183808" data-name="Path 183808" d="M0,11.18V24.1A2.9,2.9,0,0,0,2.9,27H24.1A2.9,2.9,0,0,0,27,24.1V11.18ZM14.331,21.463a3.164,3.164,0,0,1-6.3.44,3.2,3.2,0,0,1-.03-.44.791.791,0,1,1,1.582,0,1.612,1.612,0,0,0,.015.222,1.582,1.582,0,1,0,1.567-1.8.791.791,0,1,1,0-1.582,1.582,1.582,0,1,0-1.552-1.89.791.791,0,1,1-1.552-.3,3.164,3.164,0,1,1,5.194,2.985A3.157,3.157,0,0,1,14.331,21.463ZM19,23.836a.791.791,0,0,1-1.582,0v-8.7H16.177a.791.791,0,0,1,0-1.582h2.029a.791.791,0,0,1,.791.791Z" fill="#a7ddf3"/>
    </g>
  </g>
</svg>
