<svg xmlns="http://www.w3.org/2000/svg" xmlns:xlink="http://www.w3.org/1999/xlink" width="1920" height="823.647" viewBox="0 0 1920 823.647"><defs><clipPath id="a"><path d="M0,0H1920V823.648H0Z" transform="translate(0 3318)" fill="#101010"/></clipPath><clipPath id="b"><rect width="806" height="824" transform="translate(0 3318)" fill="#fff" stroke="#707070" stroke-width="1"/></clipPath></defs><g transform="translate(0 -3318)" opacity="0.07" clip-path="url(#a)"><g clip-path="url(#b)"><g transform="translate(-220.549 3419.18) rotate(-8)"><path d="M376.453,671.7C248.688,643.338,178.12,544.631,177.718,440.23c-.463-120.017,99.084-234.723,237.553-234.2l158.343.594c40.267.151,76.974-21.918,94.748-56.973h0C703.1,81.14,651.518.4,572.817.1L396.185-.56C-21.754-2.129-225.109,548.451,376.453,671.7Z" transform="translate(71.607 256.1)" fill="none" stroke="#fff" stroke-width="2"/><path d="M808.825,96.3C831.073,52.421,798.037.713,747.634.524L442.039-.624C-96.9-2.647-190.119,699.885,422.82,803.9-178.742,680.646,24.613,130.067,442.549,131.636l305.6,1.147c25.788.1,49.3-14.04,60.681-36.487Z" transform="translate(25.24 123.904)" fill="none" stroke="#fff" stroke-width="2"/><path d="M467.279,123.281l375.7,1.411c24.166.091,46.2-13.158,56.862-34.193h0C920.688,49.383,889.729.928,842.5.751L466.8-.66C27.012-2.311-157.916,532.531,156.52,798.28-107.314,563.706,39.6,121.675,467.279,123.281Z" transform="translate(0 0)" fill="none" stroke="#fff" stroke-width="2"/></g></g></g></svg>