<svg xmlns="http://www.w3.org/2000/svg" width="36" height="36" viewBox="0 0 36 36">
  <g id="ic_number_of_passengers" transform="translate(-211 -1078)">
    <g id="Group_191853" data-name="Group 191853" transform="translate(-131)">
      <g id="calendar" transform="translate(-2830 -1014)">
        <rect id="Frame" width="36" height="36" transform="translate(3172 2092)" fill="#25aae1" opacity="0"/>
      </g>
    </g>
    <g id="Group_191852" data-name="Group 191852" transform="translate(188.003 1075.659)">
      <path id="Path_183785" data-name="Path 183785" d="M182.784,397.087l-.382,1.485a1,1,0,0,1-.967.75H175.3a1,1,0,0,1-.967-.75l-.382-1.485a3.165,3.165,0,0,1,3.065-3.953h2.7A3.165,3.165,0,0,1,182.784,397.087Z" transform="translate(-136.889 -365.523)" fill="#25aae1"/>
      <path id="Path_183787" data-name="Path 183787" d="M206.052,273.679a3.086,3.086,0,1,1-3.084-3.087A3.087,3.087,0,0,1,206.052,273.679Z" transform="translate(-161.486 -249.72)" fill="#25aae1"/>
      <path id="Path_183789" data-name="Path 183789" d="M216.886,319.9v1.124a2.486,2.486,0,0,1-2.46,2.5,2.415,2.415,0,0,1-2.373-2.418V319.9a.87.87,0,0,1,.87-.87h3.094A.87.87,0,0,1,216.886,319.9Z" transform="translate(-172.99 -295.493)" fill="#a7ddf3"/>
      <path id="Path_183790" data-name="Path 183790" d="M367.777,335.594l-.273,1.063a.715.715,0,0,1-.692.537h-4.391a.715.715,0,0,1-.692-.537l-.273-1.063a2.266,2.266,0,0,1,2.194-2.83h1.934A2.266,2.266,0,0,1,367.777,335.594Z" transform="translate(-314.108 -308.473)" fill="#25aae1"/>
      <path id="Path_183792" data-name="Path 183792" d="M384.434,247.251a2.209,2.209,0,1,1-2.208-2.21A2.21,2.21,0,0,1,384.434,247.251Z" transform="translate(-331.716 -225.574)" fill="#25aae1"/>
      <path id="Path_183794" data-name="Path 183794" d="M392.189,280.338v.8a1.779,1.779,0,0,1-1.761,1.79,1.729,1.729,0,0,1-1.7-1.731v-.863a.623.623,0,0,1,.623-.623h2.215A.623.623,0,0,1,392.189,280.338Z" transform="translate(-339.95 -258.341)" fill="#a7ddf3"/>
      <path id="Path_183795" data-name="Path 183795" d="M39.4,335.594l-.273,1.063a.715.715,0,0,1-.692.537H34.042a.715.715,0,0,1-.692-.537l-.273-1.063a2.266,2.266,0,0,1,2.194-2.83H37.2A2.266,2.266,0,0,1,39.4,335.594Z" transform="translate(-3.786 -308.473)" fill="#25aae1"/>
      <path id="Path_183797" data-name="Path 183797" d="M56.055,247.251a2.209,2.209,0,1,1-2.208-2.21A2.21,2.21,0,0,1,56.055,247.251Z" transform="translate(-21.395 -225.574)" fill="#25aae1"/>
      <path id="Path_183799" data-name="Path 183799" d="M63.81,280.338v.8a1.779,1.779,0,0,1-1.761,1.79,1.729,1.729,0,0,1-1.7-1.731v-.863a.623.623,0,0,1,.623-.623h2.215A.623.623,0,0,1,63.81,280.338Z" transform="translate(-29.629 -258.341)" fill="#a7ddf3"/>
      <path id="Path_183800" data-name="Path 183800" d="M53.963,7.8v9.09a1.46,1.46,0,0,1-1.46,1.46H30.457A1.46,1.46,0,0,1,29,16.891V7.8a1.46,1.46,0,0,1,1.46-1.46H52.5A1.461,1.461,0,0,1,53.963,7.8Z" transform="translate(0)" fill="#a7ddf3"/>
      <path id="Path_183802" data-name="Path 183802" d="M110.98,66.655l-3.736-2.12a.292.292,0,1,1,.288-.508l3.538,2.008,3.579-3.735a.292.292,0,0,1,.346-.057l3.526,1.84,3.586-4.364a.292.292,0,1,1,.451.371l-3.736,4.547a.292.292,0,0,1-.361.074l-3.542-1.849L111.335,66.6A.292.292,0,0,1,110.98,66.655Z" transform="translate(-73.804 -50.341)" fill="#25aae1"/>
      <path id="Path_183803" data-name="Path 183803" d="M353.147,50.562,351.364,49.1a.438.438,0,0,1,.205-.771l1.731-.292a.439.439,0,0,1,.512.419l.053,1.753A.439.439,0,0,1,353.147,50.562Z" transform="translate(-304.488 -39.398)" fill="#25aae1"/>
    </g>
  </g>
</svg>
