<svg xmlns="http://www.w3.org/2000/svg" width="18" height="18" viewBox="0 0 18 18">
  <g id="Group_191757" data-name="Group 191757" transform="translate(-11473 2507)">
    <path id="Path_183767" data-name="Path 183767" d="M8216.221,10376.208s3.537-.664,3.832-1.032a21.233,21.233,0,0,1,3.315-1.547s2.211.883,2.211,1.547.664,3.538-.441,4.349a27.81,27.81,0,0,1-3.316,1.769,8.29,8.29,0,0,1-3.39.884,6.729,6.729,0,0,1-1.843-.516,10.251,10.251,0,0,1-1.769-2.506A22.361,22.361,0,0,1,8216.221,10376.208Z" transform="translate(3262 -12876)" fill="#fff"/>
    <path id="check-circle" d="M354.25,517.25a9,9,0,1,0,9,9A9.01,9.01,0,0,0,354.25,517.25Zm3.374,6.6a.628.628,0,0,1,0,.888l-3.906,3.907a.63.63,0,0,1-.888,0l-1.953-1.954a.628.628,0,0,1,.887-.887l1.509,1.51,3.464-3.464A.629.629,0,0,1,357.624,523.852Z" transform="translate(11127.75 -3024.25)" fill="#00ae78"/>
  </g>
</svg>
