<svg xmlns="http://www.w3.org/2000/svg" width="36" height="36" viewBox="0 0 36 36">
  <g id="ic_attendees" transform="translate(4052 2859)">
    <rect id="Rectangle_14451" data-name="Rectangle 14451" width="36" height="36" transform="translate(-4052 -2859)" fill="none"/>
    <g id="Group_191870" data-name="Group 191870" transform="translate(111 114)">
      <circle id="Ellipse_10069" data-name="Ellipse 10069" cx="15" cy="15" r="15" transform="translate(-4160 -2970)" fill="#a7ddf3"/>
      <g id="Group_191869" data-name="Group 191869" transform="translate(-4155 -2966)">
        <path id="Path_183834" data-name="Path 183834" d="M4.2,12.891V8.855a3.05,3.05,0,0,1,.12-.846H1.6A1.6,1.6,0,0,0,0,9.609v3.212a1.609,1.609,0,0,0,.818,1.395v4.668a.618.618,0,0,0,.618.618H5.23V15.186A3.1,3.1,0,0,1,4.2,12.891ZM3.336,7.278a2.42,2.42,0,1,0-2.42-2.42A2.423,2.423,0,0,0,3.336,7.278ZM11.655,7H7.292A1.856,1.856,0,0,0,5.438,8.855v4.036a1.861,1.861,0,0,0,1.028,1.658v5.962a.618.618,0,0,0,.618.618h4.779a.618.618,0,0,0,.618-.618V14.549a1.862,1.862,0,0,0,1.028-1.658V8.855A1.856,1.856,0,0,0,11.655,7ZM9.473,5.766A2.883,2.883,0,1,0,6.59,2.883,2.886,2.886,0,0,0,9.473,5.766ZM18.56,8.478a1.6,1.6,0,0,0-1.131-.469h-2.8a3.057,3.057,0,0,1,.12.846v4.036a3.1,3.1,0,0,1-1.028,2.295V19.5a.634.634,0,0,0,.075,0h3.8a.618.618,0,0,0,.618-.618V14.216a1.609,1.609,0,0,0,.818-1.395V9.609a1.6,1.6,0,0,0-.47-1.131Zm-2.868-1.2a2.42,2.42,0,1,0-2.42-2.42A2.423,2.423,0,0,0,15.692,7.278Zm0,0" fill="#25aae1"/>
      </g>
    </g>
  </g>
</svg>
