<svg xmlns="http://www.w3.org/2000/svg" width="36" height="36" viewBox="0 0 36 36">
  <g id="ic_event_types" transform="translate(4052 2951)">
    <rect id="Rectangle_14449" data-name="Rectangle 14449" width="36" height="36" transform="translate(-4052 -2951)" fill="none"/>
    <g id="Group_191856" data-name="Group 191856" transform="translate(-4047 -2946)">
      <path id="Path_183810" data-name="Path 183810" d="M294.13.791A.791.791,0,1,1,293.339,0,.791.791,0,0,1,294.13.791Zm-2.819,11.338a.791.791,0,0,1-.475-.158l-2.77-2.078-2.771,2.078a.791.791,0,0,1-1.235-.85l1.073-3.757-2.84-2.308a.791.791,0,0,1,.5-1.4h3.486l1.037-3.11a.791.791,0,0,1,1.5,0l1.037,3.11h3.486a.791.791,0,0,1,.5,1.4L291,7.363l1.074,3.757a.791.791,0,0,1-.761,1.008ZM290.5,24.363a.791.791,0,0,1-.475-.158l-1.959-1.469-1.959,1.469a.791.791,0,0,1-1.235-.85l.769-2.693-2.029-1.648a.791.791,0,0,1,.5-1.4h2.472l.732-2.2a.791.791,0,0,1,1.5,0l.732,2.2h2.472a.791.791,0,0,1,.5,1.4l-2.029,1.648.769,2.693a.791.791,0,0,1-.761,1.008Zm0,0" transform="translate(-267.13)" fill="#25aae1"/>
      <path id="Path_183811" data-name="Path 183811" d="M8.595,27a.791.791,0,0,1-.786-.715,22.814,22.814,0,0,1,.542-6.433,24.333,24.333,0,0,1,2.169-6.042,22.476,22.476,0,0,1,4.767-6.218.791.791,0,1,1,1.069,1.166A21.7,21.7,0,0,0,9.908,20.133a21.708,21.708,0,0,0-.525,6A.791.791,0,0,1,8.67,27c-.025,0-.05,0-.075,0ZM6.171,27a.791.791,0,0,1-.718-.459c-2.17-4.682-2.529-10.35-.915-14.44a.791.791,0,0,1,1.472.581c-1.44,3.649-1.088,8.951.878,13.193A.791.791,0,0,1,6.171,27Zm-4.589-.791a.791.791,0,1,1-.791-.791A.791.791,0,0,1,1.582,26.209ZM16.189,15.135a.791.791,0,1,1-.791-.791A.791.791,0,0,1,16.189,15.135Zm-3.9-9.078a.791.791,0,0,1-.559-1.35,2.372,2.372,0,0,0,0-3.356A.791.791,0,0,1,12.846.232a3.953,3.953,0,0,1,0,5.593.789.789,0,0,1-.559.231ZM11.286,27a.792.792,0,0,1-.775-.955,7.607,7.607,0,0,1,1.11-2.472,6.409,6.409,0,0,1,4.809-2.846.791.791,0,1,1,.153,1.575,4.806,4.806,0,0,0-3.625,2.119,6.116,6.116,0,0,0-.9,1.952A.79.79,0,0,1,11.286,27Zm0,0" transform="translate(-0.001 0)" fill="#a7ddf3"/>
      <path id="Path_183812" data-name="Path 183812" d="M8.031,30.547a.79.79,0,0,1-.475-.158L5.273,28.676,2.989,30.389a.791.791,0,0,1-1.235-.85l.891-3.119L.292,24.508a.791.791,0,0,1,.5-1.4H3.668l.854-2.562a.791.791,0,0,1,1.5,0L6.877,23.1H9.755a.791.791,0,0,1,.5,1.4L7.9,26.42l.891,3.119a.791.791,0,0,1-.76,1.008Zm0,0" transform="translate(0 -18.945)" fill="#25aae1"/>
    </g>
  </g>
</svg>
