<svg xmlns="http://www.w3.org/2000/svg" width="36" height="36" viewBox="0 0 36 36">
  <g id="ic_event_discription" transform="translate(4052 2903)">
    <rect id="Rectangle_14450" data-name="Rectangle 14450" width="36" height="36" transform="translate(-4052 -2903)" fill="none"/>
    <g id="Group_191868" data-name="Group 191868" transform="translate(184 45.5)">
      <path id="Subtraction_4" data-name="Subtraction 4" d="M18.985,27H.791A.792.792,0,0,1,0,26.209V2.373A2.376,2.376,0,0,1,2.373,0h17.67a2.763,2.763,0,0,0-.267,1.186V8.85c.006.009.011.327.014.972a.993.993,0,0,0-.46.555L18.256,13.6H14.637a.994.994,0,0,0-.627,1.767l2.959,2.4-1.121,3.922A.995.995,0,0,0,17.4,22.761l2.386-1.789c0,1.868-.009,3.6-.011,3.611v1.625A.792.792,0,0,1,18.985,27ZM3.56,22.2a.791.791,0,1,0,0,1.582h6.855a.791.791,0,1,0,0-1.582Zm0-3.164a.791.791,0,1,0,0,1.582h6.855a.791.791,0,0,0,0-1.582Zm0-3.164a.791.791,0,1,0,0,1.582h6.855a.791.791,0,0,0,0-1.582Zm0-3.164a.791.791,0,1,0,0,1.582h6.855a.791.791,0,0,0,0-1.582Zm0-3.164a.791.791,0,1,0,0,1.582H12a.791.791,0,0,0,0-1.582Zm0-3.164a.791.791,0,0,0,0,1.582H16.216a.791.791,0,0,0,0-1.582Zm0-3.164a.791.791,0,0,0,0,1.582H16.216a.791.791,0,0,0,0-1.582Zm19.38,2.056H21.357V1.186a1.187,1.187,0,0,1,2.373,0v3.3A.792.792,0,0,1,22.939,5.273Z" transform="translate(-4231 -2943.5)" fill="#25aae1"/>
      <path id="Path_183832" data-name="Path 183832" d="M7.981,30.481a.785.785,0,0,1-.472-.157l-2.27-1.7-2.27,1.7a.786.786,0,0,1-1.227-.845l.886-3.1L.29,24.48a.786.786,0,0,1,.5-1.4h2.86l.849-2.546a.786.786,0,0,1,1.491,0l.849,2.546h2.86a.786.786,0,0,1,.5,1.4l-2.339,1.9.885,3.1a.786.786,0,0,1-.756,1Zm0,0" transform="translate(-4215.967 -2952.412)" fill="#a7ddf3"/>
    </g>
  </g>
</svg>
