<svg xmlns="http://www.w3.org/2000/svg" width="36" height="36" viewBox="0 0 36 36">
  <g id="ic_hosted_by" transform="translate(4052 2813)">
    <rect id="Rectangle_14452" data-name="Rectangle 14452" width="36" height="36" transform="translate(-4052 -2813)" fill="none"/>
    <g id="Group_191862" data-name="Group 191862" transform="translate(64 112)">
      <g id="Group_191860" data-name="Group 191860" transform="translate(-4132.262 -2920)">
        <path id="Path_183828" data-name="Path 183828" d="M39.871,26.119V22.142a2.637,2.637,0,0,1-1.761-2.479V17.707a4.4,4.4,0,0,0-.88-.1H35.468v-.88c0-.023-.005-.045-.007-.068a7.042,7.042,0,0,0,3.529-6.095V7.043a7.043,7.043,0,0,0-14.087,0v3.522a7.042,7.042,0,0,0,3.522,6.09v.953H26.664a4.407,4.407,0,0,0-4.4,4.4v4.109a.881.881,0,0,0,.88.88h16.89A2.61,2.61,0,0,1,39.871,26.119ZM26.664,10.565V8.8h3.522a4.4,4.4,0,0,0,3.522-1.764A4.4,4.4,0,0,0,37.229,8.8v1.761a5.287,5.287,0,0,1-3.522,4.974V18.2l-1.761,2.348L30.186,18.2V15.54a5.287,5.287,0,0,1-3.522-4.974Zm7.224,14.674H30.006l-1.355-5.87h.214l2.377,3.17a.882.882,0,0,0,1.409,0l2.377-3.17h.214Z" fill="#25aae1"/>
      </g>
      <g id="Group_191861" data-name="Group 191861" transform="translate(-4132.262 -2920)">
        <path id="Path_183828-2" data-name="Path 183828" d="M41.631,22.3V26.12a.88.88,0,0,0,.88.88h1.761a.88.88,0,0,0,.88-.88V22.3H41.631Zm4.24-5.283a2.641,2.641,0,1,0-4.959,0c-.7,0-1.042.4-1.042.88v1.761a.88.88,0,0,0,.88.88h5.283a.88.88,0,0,0,.88-.88V17.9c0-.485-.339-.88-1.042-.88Z" fill="#a7ddf3"/>
      </g>
    </g>
  </g>
</svg>
