<svg xmlns="http://www.w3.org/2000/svg" width="36" height="36" viewBox="0 0 36 36">
  <g id="puzzle" transform="translate(-120 -292)">
    <rect id="Frame" width="36" height="36" transform="translate(120 292)" fill="#25aae1" opacity="0"/>
    <path id="Path_4764" data-name="Path 4764" d="M149.75,308.5H147.5a3,3,0,0,0-3,3h0a3,3,0,0,0,3,3h2.25a.75.75,0,0,1,.75.75V319a3,3,0,0,1-3,3h-5.25a.75.75,0,0,1-.75-.75V319a3,3,0,0,0-3-3h0a3,3,0,0,0-3,3v2.25a.75.75,0,0,1-.75.75H131a3,3,0,0,1-3-3v-3.75a.75.75,0,0,0-.75-.75H125a3,3,0,0,1-3-3h0a3,3,0,0,1,3-3h2.25a.75.75,0,0,0,.75-.75V304a3,3,0,0,1,3-3h3.75a.75.75,0,0,0,.75-.75V298a3,3,0,0,1,3-3h0a3,3,0,0,1,3,3v2.25a.75.75,0,0,0,.75.75h5.25a3,3,0,0,1,3,3v3.75A.75.75,0,0,1,149.75,308.5Z" transform="translate(1 1.5)" fill="#25aae1" opacity="0.4"/>
  </g>
</svg>
