<svg xmlns="http://www.w3.org/2000/svg" width="36" height="36" viewBox="0 0 36 36">
  <g id="life-ring" transform="translate(-624 -572)">
    <rect id="Frame" width="36" height="36" transform="translate(624 572)" fill="#25aae1" opacity="0"/>
    <path id="Path_4953" data-name="Path 4953" d="M652.37,579.22a14.463,14.463,0,0,0-1.59-1.59,14.97,14.97,0,0,0-19.545,0,13.261,13.261,0,0,0-1.59,1.59,14.943,14.943,0,0,0,0,19.56,13.261,13.261,0,0,0,1.59,1.59,14.97,14.97,0,0,0,19.545,0,14.463,14.463,0,0,0,1.59-1.59,14.99,14.99,0,0,0,0-19.56ZM641,595.66a6.571,6.571,0,0,1-3.855-1.245,6.226,6.226,0,0,1-1.575-1.56,6.656,6.656,0,0,1,0-7.71,6.226,6.226,0,0,1,1.575-1.56A6.571,6.571,0,0,1,641,582.34a6.748,6.748,0,0,1,3.87,1.23,6.545,6.545,0,0,1,1.575,1.575,6.656,6.656,0,0,1,0,7.71,6.545,6.545,0,0,1-1.575,1.575A6.748,6.748,0,0,1,641,595.66Z" transform="translate(1 1)" fill="#25aae1" opacity="0.4"/>
    <path id="Path_4954" data-name="Path 4954" d="M646.08,578.01l-5.85,5.865c-.03.015-.045.045-.075.06a6.547,6.547,0,0,0-1.575-1.575.262.262,0,0,1,.06-.075l5.85-5.865A14.453,14.453,0,0,1,646.08,578.01Z" transform="translate(7.29 2.21)" fill="#25aae1"/>
    <path id="Path_4955" data-name="Path 4955" d="M635.93,588.13a.312.312,0,0,1-.06.09l-5.85,5.865a13.252,13.252,0,0,1-1.59-1.59l5.85-5.865a.15.15,0,0,1,.075-.06A6.229,6.229,0,0,0,635.93,588.13Z" transform="translate(2.215 7.285)" fill="#25aae1"/>
    <path id="Path_4956" data-name="Path 4956" d="M635.93,582.375a6.229,6.229,0,0,0-1.575,1.56c-.03-.015-.045-.045-.075-.06l-5.85-5.865a13.252,13.252,0,0,1,1.59-1.59l5.85,5.865A.312.312,0,0,1,635.93,582.375Z" transform="translate(2.215 2.21)" fill="#25aae1"/>
    <path id="Path_4957" data-name="Path 4957" d="M646.08,592.495a14.453,14.453,0,0,1-1.59,1.59l-5.85-5.865a.262.262,0,0,1-.06-.075,6.547,6.547,0,0,0,1.575-1.575.263.263,0,0,1,.075.06Z" transform="translate(7.29 7.285)" fill="#25aae1"/>
  </g>
</svg>
