<svg xmlns="http://www.w3.org/2000/svg" width="36" height="36" viewBox="0 0 36 36">
  <g id="speedometer" transform="translate(-344 -348)">
    <rect id="Frame" width="36" height="36" transform="translate(344 348)" fill="#25aae1" opacity="0"/>
    <circle id="Ellipse_16" data-name="Ellipse 16" cx="15" cy="15" r="15" transform="translate(347 351)" fill="#25aae1" opacity="0.4"/>
    <path id="Path_4808" data-name="Path 4808" d="M357.784,364.966a2.253,2.253,0,0,1,0-3.183,55.536,55.536,0,0,1,6.292-3.716.447.447,0,0,1,.606.606,55.536,55.536,0,0,1-3.716,6.292A2.253,2.253,0,0,1,357.784,364.966Zm-5.621,3.878a1.127,1.127,0,0,0,.4-1.542,7.6,7.6,0,0,1-1.059-3.927,7.922,7.922,0,0,1,9.589-7.691,1.125,1.125,0,0,0,.471-2.2,10.362,10.362,0,0,0-2.185-.234,10.136,10.136,0,0,0-10.125,10.125,9.964,9.964,0,0,0,1.372,5.073,1.126,1.126,0,0,0,1.54.4Zm15.965-.4a9.964,9.964,0,0,0,1.372-5.073,10.238,10.238,0,0,0-.236-2.187,1.125,1.125,0,0,0-2.2.474,8.049,8.049,0,0,1,.186,1.713,7.6,7.6,0,0,1-1.059,3.927,1.125,1.125,0,0,0,1.936,1.146Z" transform="translate(2.625 2.625)" fill="#25aae1"/>
  </g>
</svg>
