<svg xmlns="http://www.w3.org/2000/svg" width="36" height="36" viewBox="0 0 36 36">
  <g id="ic_price_per_person" transform="translate(4052 2765)">
    <g id="ic_price_per_person-2" data-name="ic_price_per_person">
      <rect id="Rectangle_14453" data-name="Rectangle 14453" width="36" height="36" transform="translate(-4052 -2765)" fill="none"/>
      <g id="Group_191865" data-name="Group 191865" transform="translate(67 122)">
        <g id="Group_191863" data-name="Group 191863" transform="translate(-4114 -2882)">
          <path id="Path_183829" data-name="Path 183829" d="M98.163,16.7v1.542a.791.791,0,0,0,.791.791h3.691a.791.791,0,0,0,.791-.791V16.7A7.376,7.376,0,0,1,98.163,16.7Zm2.637-1.095a5.807,5.807,0,0,0,5.8-5.8V7.935a3.989,3.989,0,0,1-2.428.822H99.989a2.361,2.361,0,0,1-1.406-.462,7.39,7.39,0,0,1-2.793.462A2.362,2.362,0,0,1,95,8.62V9.809A5.807,5.807,0,0,0,100.8,15.609Zm-2.3-4.28a.791.791,0,0,1,1.117.061,1.58,1.58,0,0,0,2.357,0,.791.791,0,1,1,1.178,1.056,3.163,3.163,0,0,1-4.713,0A.791.791,0,0,1,98.5,11.329ZM95.79,7.175A5.634,5.634,0,0,0,99.2,6.2v.187a.791.791,0,0,0,.791.791h4.184A2.431,2.431,0,0,0,106.6,4.746,4.751,4.751,0,0,0,101.855,0H99.743A4.749,4.749,0,0,0,95,4.744V6.383a.791.791,0,0,0,.791.791Z" transform="translate(-89.989)" fill="#25aae1"/>
          <path id="Path_183830" data-name="Path 183830" d="M12.588,205.353H8.965a2.376,2.376,0,0,1-2.373-2.373v-2.218l-2.429.588A5.428,5.428,0,0,0,0,206.641v4.3a.791.791,0,0,0,.791.791h13.9a6.2,6.2,0,0,1-2.1-6.381Z" transform="translate(0 -184.734)" fill="#25aae1"/>
        </g>
        <g id="Group_191864" data-name="Group 191864" transform="translate(-4114 -2882)">
          <path id="Path_183830-2" data-name="Path 183830" d="M22.907,199.811a.79.79,0,0,0-.043-1.58h-.456a1.306,1.306,0,0,1,.618-.747,1.266,1.266,0,0,0,.37-1.754,1.41,1.41,0,0,0-1.233-.712H18.82a1.41,1.41,0,0,0-1.233.712,1.265,1.265,0,0,0,.37,1.754,1.306,1.306,0,0,1,.618.747h-.456a.791.791,0,0,0-.043,1.58c-1.27,1.648-4.092,4.391-4.092,6.947,0,2.867,1.759,4.976,6.508,4.976S27,209.624,27,206.758c0-2.547-2.82-5.288-4.093-6.947Z" transform="translate(0.016 -184.734)" fill="#a7ddf3"/>
        </g>
      </g>
    </g>
    <path id="presentation-dollar" d="M746.163,1557.11a2,2,0,0,1,1.337-3.2v-.412a.5.5,0,0,1,1,0v.41a1.98,1.98,0,0,1,1.738,1.757.5.5,0,1,1-.994.11.985.985,0,0,0-.969-.888h-.55a.987.987,0,0,0-.975,1,1,1,0,0,0,.205.613.964.964,0,0,0,.535.355l1.267.32a2,2,0,0,1,.915,3.347,1.935,1.935,0,0,1-1.172.567v.411a.5.5,0,0,1-1,0v-.41a1.98,1.98,0,0,1-1.738-1.757.5.5,0,1,1,.994-.11.985.985,0,0,0,.969.888h.55a.958.958,0,0,0,.685-.29,1,1,0,0,0,.29-.708.994.994,0,0,0-.74-.968l-1.267-.32A1.992,1.992,0,0,1,746.163,1557.11Z" transform="translate(-4774.75 -4297)" fill="#25aae1"/>
  </g>
</svg>
