<svg xmlns="http://www.w3.org/2000/svg" width="18" height="18" viewBox="0 0 18 18">
  <g id="Group_191757" data-name="Group 191757" transform="translate(-11473 2507)">
    <path id="Path_183767" data-name="Path 183767" d="M8216.221,10376.844s3.537-.827,3.832-1.287a19.6,19.6,0,0,1,3.315-1.928s2.211,1.1,2.211,1.928.664,4.411-.441,5.421a26.525,26.525,0,0,1-3.316,2.2,6.989,6.989,0,0,1-3.39,1.1,5.749,5.749,0,0,1-1.843-.643,13.179,13.179,0,0,1-1.769-3.124A31.339,31.339,0,0,1,8216.221,10376.844Z" transform="translate(3262 -12877.012)" fill="#FF9934"/>
    <path id="check-circle" d="M354.25,517.25a9,9,0,1,0,9,9A9.01,9.01,0,0,0,354.25,517.25Zm3.374,6.6a.628.628,0,0,1,0,.888l-3.906,3.907a.63.63,0,0,1-.888,0l-1.953-1.954a.628.628,0,0,1,.887-.887l1.509,1.51,3.464-3.464A.629.629,0,0,1,357.624,523.852Z" transform="translate(11127.75 -3024.25)" fill="#FF9934"/>
    <path id="clock" d="M3354.711,2160.9a.606.606,0,1,1-.857.857l-2.426-2.426a.605.605,0,0,1-.178-.429v-4.043a.606.606,0,0,1,1.213,0v3.792Z" transform="translate(8128.931 -4656.188)" fill="#fff"/>
  </g>
</svg>
